<svg id="Ebene_1" data-name="Ebene 1" xmlns="http://www.w3.org/2000/svg" viewBox="0 0 1047 1096.3"><path d="M103.25,985.26c-31.37,0-50-6.57-52.41-18.5-1.68-8.23,5.23-16.7,18.56-22.94v-.07c-.36-3.44-.74-7-1.24-10.55a91.56,91.56,0,0,0-3.41-14.27c-1.38-4.55-2.58-8.52-2.31-12.26C53.7,867.06,64.49,835.06,74,806.82c6.58-19.53,12.27-36.4,10.3-52.22-1.91-15.37-5.41-42.12-5.68-44.12a43.94,43.94,0,0,1-.81-7.68,4.83,4.83,0,0,1-1.48-1.2c-2-2.33-1.83-6.7-1.3-10.22-2.21-9.24-5.33-29.85,8-37.94A93,93,0,0,0,93,646.23c8.18-6.53,16.63-13.29,30.72-13.29l1.54,0a46.1,46.1,0,0,1,9.13,1.14c19.69,4.11,23,18.89,23.23,27a108.88,108.88,0,0,1,15.77-1.26c12.72,0,22.44,3,28.89,8.86,2.39,2.17,1.91,4.16,1.42,5.16-1.09,2.17-3.5,2.25-4.52,2.25-13.85,2.53-24,4.37-29.84,5.41,16.25,33.72-.66,61.08-9,74.51-1.41,2.3-2.64,4.28-3.29,5.64-.44.93-1,3.8-.27,12.61a90.86,90.86,0,0,1,18.74,4.14c.85-4.06,4.58-6.68,10.31-7.32.95-8,1.35-9.41,1.51-10a4.88,4.88,0,0,1,4.79-3.68,9,9,0,0,1,4.9,1.87l1.67,1.27-.33,2.07-1.47,9.39c5.42,1.51,8.5,4.29,8.39,7.75-.07,2-.25,7.68-1,14.1,8.19,6.86,7.4,10.15,7.13,11.28a4.51,4.51,0,0,1-3.65,3.39,18.5,18.5,0,0,1-3.41.24q-1.4,0-3.15-.09c-2.82,8.45-7.06,12.77-12.62,12.85h-.13c-6.06,0-10.09-5.46-12-16.22a104.51,104.51,0,0,1-16.19-4.58q.48,3.21,1,6.55c1.75,11.51,3.74,24.54,5.24,37.26,3.52,6.13,6.08,12.08,1.78,17.9,1.54,20.21.81,35.07-2.22,45.43a13.33,13.33,0,0,1-4.82,6.53A91.17,91.17,0,0,1,155,940.57c14.64,5.55,22.94,13.88,21.86,22.2-1.59,12.27-21.8,19.89-58.43,22C113.13,985.1,108,985.26,103.25,985.26Zm-9.57-59.38a77.37,77.37,0,0,1-1.93,11,144.48,144.48,0,0,1,20.2-2.41c2-.1,4-.15,6-.15a115.3,115.3,0,0,1,17,1.24c-.39-3.63-.79-7.38-1.31-11.11l0-.18a165,165,0,0,1-27,2.24C102.1,926.47,97.75,926.27,93.68,925.88Z" style="fill:#a5f8ff"/><path d="M123.67,636.44l1.47,0a42,42,0,0,1,8.49,1.07c20,4.17,20.91,20.21,20.36,27.06l.49.57a112.15,112.15,0,0,1,18.86-1.8c10.85,0,20.26,2.23,26.53,7.94.54.49.74.81.64,1s-.61.31-1.48.31h-.21c-6.43,1.17-29.33,5.36-34.84,6.29,22.3,39.88-5.22,71-10.11,81.27-1.29,2.7-1.19,8.88-.32,17.32a88.8,88.8,0,0,1,25.14,5.79c.06-2.21.15-3.58.15-3.58.36-3.8,4.87-5.25,9.79-5.25H189c.5-4.51,1.25-10.71,1.73-12.32a1.4,1.4,0,0,1,1.43-1.17,5.9,5.9,0,0,1,2.79,1.17s-1.15,7.26-2,12.65c4.79.76,8.94,2.68,8.87,4.91a151.88,151.88,0,0,1-1.26,15.71c6.38,5,9.09,9.23,6.52,9.74a15.14,15.14,0,0,1-2.73.18c-1.51,0-3.45-.09-5.7-.27-1.93,7.13-5,13-10.12,13h-.08c-5.28,0-7.77-7.38-8.9-15.67-9.21-1.78-18.43-4.36-23.71-7.66,2.2,15.06,5.2,33.16,7.28,51l.06.1c4.4,7.57,5.24,11.46,1.51,15.55,1.43,17.73,1.38,34.12-2,45.57-.6,2-2.31,3.95-4.85,5.65a88,88,0,0,1-7.45,30c32,10.46,38.68,34.54-32.13,38.66q-8,.47-15,.46c-57.9,0-60.13-23-30.1-35.78-.45-4.11-.9-8.72-1.54-13.27-1.76-12.49-6.36-20.2-5.64-26.27C51.08,840.1,92.77,794.33,87.78,754.16c-2-16.08-5.69-44.25-5.69-44.25a40.88,40.88,0,0,1-.7-10.55l0,0a2.69,2.69,0,0,1-1.32.43c-2.83,0-1.52-8-1.41-8.58-1.89-7.6-5.56-27.65,6.29-34.81,12.63-7.63,20.61-20,38.77-20M106.66,923a125.82,125.82,0,0,1-16.19-1,76.19,76.19,0,0,1-3.69,19.52,134.69,134.69,0,0,1,25.35-3.59c2-.1,3.93-.15,5.87-.15a111.56,111.56,0,0,1,21,2c-.54-4.81-1.06-10.36-1.83-15.82-.18-1.31-.4-2.57-.63-3.78A158.11,158.11,0,0,1,106.66,923m17-293.53h0c-15.32,0-24.66,7.47-32.9,14.06a90.23,90.23,0,0,1-9.49,6.94c-5,3-11,9.41-11.67,22.9a69.06,69.06,0,0,0,1.87,18.2c-1.13,8.39,1.34,11.32,2.18,12.32a8.73,8.73,0,0,0,.73.76,45.37,45.37,0,0,0,.79,6.43c.36,2.72,3.78,28.86,5.66,44s-3.7,31.54-10.15,50.67c-9.63,28.57-20.53,60.91-11.78,101.24-.19,4.2,1.06,8.31,2.48,13a87.87,87.87,0,0,1,3.29,13.75c.38,2.69.69,5.41,1,8.07-13.41,6.9-20.17,16.29-18.25,25.7,1,4.91,4.85,11.71,17.54,16.25,9.39,3.35,22.27,5,38.3,5,4.84,0,10-.16,15.39-.47,39.08-2.28,59.84-10.71,61.7-25.07,1.23-9.48-6.47-18.41-20.86-24.62a94,94,0,0,0,5.08-22.38,15.84,15.84,0,0,0,4.81-7.28c3.1-10.55,3.9-25.44,2.45-45.45,4.63-7.43.93-14.92-2-20-1.5-12.55-3.45-25.33-5.17-36.66l-.12-.81c2.68.82,5.64,1.59,8.86,2.31a35,35,0,0,0,2.7,8.15c3.71,7.51,9.28,8.63,12.28,8.63h.17c7.72-.1,12.28-6.17,15-12.76h.76a21.35,21.35,0,0,0,4.1-.31,8,8,0,0,0,6.37-6c.64-2.67.51-6.88-6.85-13.52.63-5.78.79-10.67.84-12.49V780c.14-4.41-2.75-8-8-10.2.55-3.54,1-6.5,1-6.5l.66-4.15-3.35-2.53a12.37,12.37,0,0,0-7-2.58,8.38,8.38,0,0,0-8.15,6.2c-.19.65-.54,1.85-1.31,7.92-4.57,1.06-7.5,3.35-9.14,6A94,94,0,0,0,160,771.2c-.35-5.85.05-7.66.19-8.07.58-1.19,1.73-3.07,3.07-5.23,4.49-7.26,11.28-18.23,14.5-32.22a67.28,67.28,0,0,0-3.49-41.47l25.18-4.58c4.36-.14,6.37-2.33,7.29-4.18.42-.84,2.28-5.24-2.19-9.31-7.12-6.48-17.63-9.77-31.25-9.77a106.66,106.66,0,0,0-12.54.8,32.15,32.15,0,0,0-3-10.21c-2.9-5.87-9.2-13.45-22.72-16.28a49.51,49.51,0,0,0-9.78-1.21l-1.61,0ZM106.66,930a169.15,169.15,0,0,0,24-1.73c.13,1.08.26,2.16.38,3.24a120.21,120.21,0,0,0-13.06-.7c-2.07,0-4.16.05-6.23.16a151.69,151.69,0,0,0-15.5,1.56c.18-1,.33-1.91.47-2.85q4.77.32,9.92.32Z" style="fill:#a5f8ff"/><path d="M123.67,636.44l1.47,0a42,42,0,0,1,8.49,1.07c20,4.17,20.91,20.21,20.36,27.06l.49.57a112.15,112.15,0,0,1,18.86-1.8c10.85,0,20.26,2.23,26.53,7.94.54.49.74.81.64,1s-.61.31-1.48.31h-.21c-6.43,1.17-29.33,5.36-34.84,6.29,22.3,39.88-5.22,71-10.11,81.27-1.29,2.7-1.19,8.88-.32,17.32a88.8,88.8,0,0,1,25.14,5.79c.06-2.21.15-3.58.15-3.58.36-3.8,4.87-5.25,9.79-5.25H189c.5-4.51,1.25-10.71,1.73-12.32a1.4,1.4,0,0,1,1.43-1.17,5.9,5.9,0,0,1,2.79,1.17s-1.15,7.26-2,12.65c4.79.76,8.94,2.68,8.87,4.91a151.88,151.88,0,0,1-1.26,15.71c6.38,5,9.09,9.23,6.52,9.74a15.14,15.14,0,0,1-2.73.18c-1.51,0-3.45-.09-5.7-.27-1.93,7.13-5,13-10.12,13h-.08c-5.28,0-7.77-7.38-8.9-15.67-9.21-1.78-18.43-4.36-23.71-7.66,2.2,15.06,5.2,33.16,7.28,51l.06.1c4.4,7.57,5.24,11.46,1.51,15.55,1.43,17.73,1.38,34.12-2,45.57-.6,2-2.31,3.95-4.85,5.65a88,88,0,0,1-7.45,30c32,10.46,38.68,34.54-32.13,38.66q-8,.47-15,.46c-57.9,0-60.13-23-30.1-35.78-.45-4.11-.9-8.72-1.54-13.27-1.76-12.49-6.36-20.2-5.64-26.27C51.08,840.1,92.77,794.33,87.78,754.16c-2-16.08-5.69-44.25-5.69-44.25a40.88,40.88,0,0,1-.7-10.55l0,0a2.69,2.69,0,0,1-1.32.43c-2.83,0-1.52-8-1.41-8.58-1.89-7.6-5.56-27.65,6.29-34.81,12.63-7.63,20.61-20,38.77-20M106.66,923a125.82,125.82,0,0,1-16.19-1,76.19,76.19,0,0,1-3.69,19.52,134.69,134.69,0,0,1,25.35-3.59c2-.1,3.93-.15,5.87-.15a111.56,111.56,0,0,1,21,2c-.54-4.81-1.06-10.36-1.83-15.82-.18-1.31-.4-2.57-.63-3.78A158.11,158.11,0,0,1,106.66,923m17-289.53h0c-13.92,0-22.3,6.7-30.41,13.18a93.32,93.32,0,0,1-9.91,7.25c-13.15,7.94-10,28.4-7.8,37.49-.53,3.43-.69,7.71,1.17,9.92a4.33,4.33,0,0,0,1.6,1.2,43,43,0,0,0,.81,7.92c.24,1.86,3.76,28.72,5.68,44.13,2,15.94-3.73,32.86-10.33,52.45-9.5,28.2-20.27,60.14-11.55,99.65-.28,3.66.86,7.44,2.29,12.16a90.84,90.84,0,0,1,3.42,14.34c.5,3.56.88,7.13,1.25,10.57l0,.42c-13.33,6.15-20.25,14.49-18.61,22.54,2.34,11.5,21.26,18.1,51.92,18.1,4.76,0,9.86-.16,15.16-.47,45.94-2.67,56.88-13.21,58-21.59,1.05-8.16-7.32-16.38-22-21.85a90.48,90.48,0,0,0,6.37-26.62,13,13,0,0,0,4.82-6.41c3-10.33,3.74-25.2,2.19-45.44,4.3-5.7,1.71-11.58-1.75-17.59-1.51-12.75-3.5-25.81-5.25-37.35q-.58-3.81-1.13-7.41a101,101,0,0,0,17.26,5c1.81,10.71,5.69,16.14,11.54,16.14h.12c5.41-.08,9.53-4.4,12.27-12.87,1.31.07,2.49.11,3.51.11a18.54,18.54,0,0,0,3.32-.23,4,4,0,0,0,3.26-3c.66-2.77-1.75-6.45-7.18-11,.82-6.51,1-12.26,1.07-14.26v-.07c.11-3.29-3-6-8.46-7.37.75-4.79,1.55-9.83,1.55-9.83l.28-1.77-1.43-1.09a8.51,8.51,0,0,0-4.6-1.77,4.4,4.4,0,0,0-4.31,3.32c-.15.49-.56,1.89-1.54,10.27-6,.56-9.78,3.27-10.37,7.52a90.73,90.73,0,0,0-19.59-4.35c-.77-8.77-.29-12.07.28-13.27.66-1.39,1.89-3.38,3.32-5.69,8.3-13.43,25.27-40.87,8.65-74.62,5.76-1,16.13-2.91,30.53-5.54,1,0,3.15,0,4.12-2,.43-.88.84-2.62-1.31-4.58-6.35-5.79-16-8.72-28.55-8.72a110.6,110.6,0,0,0-16.24,1.33,29.77,29.77,0,0,0-2.91-13c-3.64-7.37-10.36-12.13-19.95-14.13a45.29,45.29,0,0,0-9-1.13l-1.53,0ZM106.66,926a164.21,164.21,0,0,0,27.44-2.32c0,.23.07.46.1.69.55,3.89,1,7.79,1.37,11.56l0,.21A114.9,114.9,0,0,0,118,934.78c-2,0-4,.05-6,.15a143,143,0,0,0-20.91,2.56,77.46,77.46,0,0,0,2.17-12.15c4.19.42,8.69.63,13.42.63Z" style="fill:#fff"/><path d="M112.13,937.93c57.41-2.93,100.32,37.88,6.1,43.37S43.71,941.41,112.13,937.93Z" style="fill:#3d605f"/><path d="M151.29,777.36c35.3,1.71,62.22,26.53,55.74,27.82s-55.74-4.66-55.74-16.24Z" style="fill:#9773cf"/><path d="M137.17,886.38c18.67-12.57,29.28,22.24,12,58.87-9.72,20.6-9.15-1-12-21.33S124.59,894.84,137.17,886.38Z" style="fill:#9773cf"/><path d="M82.09,709.91c-7.31-36.2,38.55-82,68.55-49.16,44.26,48.42,8.84,87.67,3.23,99.45C147.62,773.32,174,868.29,162.66,907c-5.17,17.61-90.66,23.38-95.76,3.41-17.49-68.48,26-115.26,20.88-156.22C85.78,738.08,82.09,709.91,82.09,709.91Z" style="fill:#7847b0"/><path d="M71.61,898.46c17-11.46,26.71,20.29,11,53.71-8.86,18.79-8.34-.95-11-19.46S60.14,906.18,71.61,898.46Z" style="fill:#9773cf"/><path d="M200.51,672.33s-35.92,6.58-37.68,6.78-6.24-6.78-6.24-6.78L167.31,669A82.39,82.39,0,0,1,200.51,672.33Z" style="fill:#479115"/><path d="M79.43,694.22s-9.27-28.88,5.47-37.79,23.13-24.24,48.73-18.89,13.61,34.16,13.61,34.16S88.7,681.92,79.43,694.22Z" style="fill:#69ad47"/><path d="M108.61,641.76c10.09-4.4,12.55-6.83,25-4.22,25.59,5.34,19.94,30.18,19.94,30.18s-33.69,8.76-54,15.71C90.22,686.65,98,646.4,108.61,641.76Z" style="fill:#86cf5f"/><path d="M199.87,671.31c6.66,6.06-36.65-13.06-118.53,28.08-4.68,2.72-2.72-8.19-2.72-8.19S171.41,645.39,199.87,671.31Z" style="fill:#69ad47"/><path d="M155.11,731.27c.34-8.79-4.91,10.74-19.15,5.86-11.2-3.84-37.37-24.24-36.63-1.19C100.18,762.28,153.71,768.1,155.11,731.27Z" style="fill:#302514"/><path d="M147.38,704.25c-15.13,2.34-13.28,20.08,3,22C161.66,727.51,164.37,701.61,147.38,704.25Z" style="fill:#2b1a45"/><path d="M147.84,705.49c-8.85,1.64-14.25,16.32,2.08,18.49C161.1,725.51,159.48,703.32,147.84,705.49Z" style="fill:#fff"/><path d="M147.81,711c-4.57,1.17-4.66,6.65.45,8.14C155.29,721,155.53,710,147.81,711Zm1.58,3.16c-2.25-.08-3.31-2.41,0-2.41C151.46,711.78,151.63,714.27,149.39,714.19Z" style="fill:#146c54"/><path d="M96.05,717.77c2.13-6.66,15.09-7.77,18.61-1.37s0-1.38-9.3,0S94.45,722.79,96.05,717.77Z" style="fill:#2b1a45"/><path d="M128.27,745.47c-14.09-8.52-23.58-6-27.85-3.81,6.06,16.72,35.61,21.73,48.59,6.58C143.68,744.1,131.13,741.75,128.27,745.47Z" style="fill:#f61dac"/><path d="M178.84,779.73c.83-8.64,23.1-5.15,22.93,0s-1.16,38.22-13.29,38.39S178.84,779.73,178.84,779.73Z" style="fill:#00c6bd"/><path d="M190.2,776.58c12.33.75,12.19,8.14,0,7.31S180.47,776,190.2,776.58Z" style="fill:#329376"/><path d="M188.42,779.4c-.17,2.82,3.32,3.19,3.65.85s2.83-18.08,2.83-18.08-3.46-2.62-4.22,0S188.42,779.4,188.42,779.4Z" style="fill:#ff7900"/><path d="M128.77,842.54c21.86-12.43,24.94-11.77,32.82,1.77s4.38,15.3-16.41,27.56-21.67,14-30.86,0S106.45,855.23,128.77,842.54Z" style="fill:#989898"/><path d="M130.3,844.08c21.86-12.43,24.95-11.77,32.83,1.77s4.37,15.3-16.42,27.55-21.66,14-30.85,0S108,856.77,130.3,844.08Z" style="fill:#3f3f3f"/><path d="M157.34,848.27c3.68,6.44-1.49,8.23-7.55,6.24S151.69,838.39,157.34,848.27Z" style="fill:#191919"/><path d="M155.68,848.44c3.83,4.12-2.07,7.67-4.9,4.24S152.44,845,155.68,848.44Z" style="fill:#3f3f3f"/><path d="M154.6,849.52c1.79,2.42-1.08,3.9-2.62,2S153.31,847.78,154.6,849.52Z" style="fill:#989898"/><path d="M153.9,850.27c.5,1.1-.59,1.12-1,.54S153.54,849.49,153.9,850.27Z" style="fill:#191919"/><path d="M107.83,789.52c-6.6-9.16-17.17,6.5-12.32,22S119,861.73,130.37,866,116.8,802,107.83,789.52Z" style="fill:#9773cf"/><path d="M584.23,1024.4c-20.08,0-30.57-3.46-32.08-10.58-.74-3.49.42-10.27,15.65-17.66a172.81,172.81,0,0,1-2.56-25.52q-.51-.54-1-1.11l-.21-.24-1-1.18-.17-.21c-.77-1-1.55-2-2.3-3.12l-.13-.19c-.38-.57-.73-1.12-1.08-1.69-.8-1.3-1.54-2.62-2.25-4l-.11-.21c-.7-1.4-1.37-2.87-2-4.37l-.09-.21c-.29-.72-.61-1.52-.92-2.35l-.05-.15c-.64-1.71-1.24-3.49-1.77-5.27v0l-.06-.22c-.85-2.86-1.62-6-2.26-9.21a1.29,1.29,0,0,1,0-.19c-.67-3.37-1.24-7-1.68-10.76a1.36,1.36,0,0,1,0-.2c-.31-2.65-.56-5.39-.75-8.15v-.11c-.1-1.33-.17-2.74-.24-4.19v-.11c-.13-3-.21-6.14-.22-9.31v-.31c-.08-28.45,4.81-64.34,14.51-106.67,2.69-11.74,2.23-25.16,1.74-39.37-.61-17.37-1.23-35.31,4.39-50.39-2-6,1.6-11.64,4.27-14.19l1.67-1.6L576,692.4c5.53-6.55,12.81-11.53,22.18-15.16a43.48,43.48,0,0,1,15.69-3.18c17.37,0,30.9,12.72,37.45,35.05a5.19,5.19,0,0,1,1.33-.18,4.44,4.44,0,0,1,3.71,1.93c2.4,3.46-.37,10.8-1.28,13.21l-.52,1.36a115.62,115.62,0,0,1-.68,30.9,22.84,22.84,0,0,1,3.93-.37,10.87,10.87,0,0,1,4.45.8l.1,0,.1.06c.24.12,5.9,3.13,11.64,6.62,9.09,5.54,11.31,8,12.23,9.5,4.25,6.95-5.14,28-5.54,28.9-2.58,5.71-13.47,11.41-17.82,13.37-7.64,13-17.76,20.07-25.87,22.81,1.81,6.91,4.27,14.3,7,22.68,4.44,13.36,9.48,28.51,13.67,47.16l.09.38c.19.87.4,1.82.6,2.77l.17.75.72,3.51c.24,1.17.46,2.29.67,3.42,3.5,18.33,1.6,33.32-5.63,44.59a229.34,229.34,0,0,1-3.25,26.55c5.68,1.49,14.39,4.73,13.72,11.7-1.25,13.15-39.71,21.91-76.16,22.77-1.56,0-3.05.06-4.48.06Zm9.94-40.76c-.17,1.42-.37,2.84-.58,4.26a114,114,0,0,1,21.11-2c1.38,0,2.76,0,4.1.08,4.86.2,9.4.5,13.57.9-.36-1.94-.67-3.93-.94-5.94a71,71,0,0,1-23.68,3.82A86.85,86.85,0,0,1,594.17,983.64Z" style="fill:#a5f8ff"/><path d="M613.84,677.56c18,0,29.75,15.24,34.92,35.56a13.37,13.37,0,0,0,3-.49,2.2,2.2,0,0,1,.85-.2c3.08,0-.85,10.4-.85,10.4l-1.08.12a113.22,113.22,0,0,1-1.29,38.3,23.07,23.07,0,0,1,8.38-1.79,7.59,7.59,0,0,1,3,.49s5.74,3,11.46,6.52l0,0c4.92,3,9.83,6.32,11,8.31,2.64,4.32-3.59,20.85-5.75,25.64-2,4.39-12.4,10.19-17.08,12-7.93,14.07-19.21,21.43-27.63,23.09,4.44,18.93,14.33,41.06,21.53,73.09,0,.1,0,.21.07.32.21.92.41,1.86.61,2.8.06.25.11.49.16.74l.51,2.46.21,1c.22,1.12.45,2.24.66,3.38,3.69,19.34.87,33.18-5.63,42.8a225.94,225.94,0,0,1-3.88,30.32c36.29,7.9-1.19,27-58.45,28.34q-2.29.06-4.41.06c-38.78,0-33.49-13.38-12.49-22.71a167.19,167.19,0,0,1-3-29c-.63-.61-1.26-1.27-1.88-2-.05-.07-.11-.13-.16-.19-.32-.36-.63-.73-.95-1.12l-.15-.18c-.72-.9-1.43-1.86-2.13-2.9l-.14-.21c-.33-.5-.66-1-1-1.54l0-.07c-.71-1.15-1.4-2.38-2.07-3.7l-.1-.19q-1-2-2-4.26a0,0,0,0,0,0,0c-.31-.74-.61-1.51-.91-2.3a.78.78,0,0,0,0-.14c-.6-1.62-1.18-3.34-1.72-5.16l0-.11c-.81-2.75-1.55-5.74-2.2-9l0-.15q-1-4.87-1.64-10.52c0-.06,0-.11,0-.17-.29-2.53-.54-5.19-.73-8v-.06c-.09-1.37-.17-2.78-.24-4.21v-.13c-.13-2.9-.21-5.93-.22-9.1v-.3c-.07-25.48,3.85-59.75,14.42-105.87,6.31-27.52-4.1-64.27,6.49-90.59h0c-3-6,2.92-11.62,2.92-11.62s1.05.46,2.88,1.21c5-6.63,12.11-12.18,22.36-16.15a39.84,39.84,0,0,1,14.42-2.94M630.65,814c1.74-1.23,3.67-2.71,5.89-4.52a27.54,27.54,0,0,1-5.67,2.18c-.09.78-.16,1.56-.22,2.34m-22.9,167.2a83.28,83.28,0,0,1-16.64-1.69c-.43,4.36-1.05,8.72-1.83,12.87a111.64,111.64,0,0,1,25.42-3c1.32,0,2.64,0,4,.08,7,.29,13,.76,18.1,1.39a116.07,116.07,0,0,1-2.37-14.9c-8.15,3.75-17.52,5.29-26.64,5.29m6.09-310.65h0a47,47,0,0,0-17,3.41,58.63,58.63,0,0,0-21.84,14.22l-2.34-1-3.36,3.2c-3.12,3-7.28,9.45-5.53,16.6-5.43,15.48-4.81,33.33-4.21,50.63.48,14,.94,27.18-1.65,38.47-9.76,42.59-14.68,78.74-14.6,107.46v.28c0,3.25.09,6.41.22,9.41v.22c.08,1.53.15,2.92.24,4.24h0v.09c.19,2.83.45,5.62.76,8.3l0,.25c.45,3.86,1,7.56,1.71,11,0,.08,0,.16,0,.24.66,3.31,1.44,6.49,2.32,9.46l.08.26c.55,1.85,1.17,3.7,1.83,5.47v.06l.07.16c.34.91.65,1.71,1,2.45l.1.26,0,.07c.64,1.54,1.34,3.05,2.06,4.49l.09.17,0,0h0c.74,1.47,1.53,2.87,2.33,4.17l0,.06,0,0h0c.35.57.72,1.14,1.1,1.73l0,0,0,0,0,.07,0,.08c.82,1.21,1.66,2.34,2.5,3.39l.13.16,0,0,1.06,1.25c.08.1.17.19.25.28l.18.21a177.93,177.93,0,0,0,2.14,22.17c-11.34,6.06-16.71,13.18-15.19,20.33,2.54,12,21.47,13.35,35.5,13.35,1.47,0,3,0,4.57-.06,19.68-.47,38.59-3,53.24-7.23,17-4.86,25.59-11,26.33-18.7.24-2.57-.26-7.47-6.4-11.37a31,31,0,0,0-6.83-3.11c1.28-7.62,2.24-15.77,2.71-23,7.32-11.94,9.22-27.52,5.63-46.35-.21-1.14-.44-2.26-.66-3.38v-.06l-.13-.63-.09-.41-.15-.75c-.12-.59-.25-1.17-.37-1.75l-.1-.49-.07-.29c-.2-.95-.41-1.9-.62-2.85l0-.18,0-.09v-.06c-4.23-18.81-9.3-34-13.77-47.5-2.36-7.1-4.48-13.49-6.16-19.44a46,46,0,0,0,9.88-6,60.84,60.84,0,0,0,14.24-16.26c4.79-2.26,15.55-8,18.55-14.63a114.06,114.06,0,0,0,5-14c2.55-9,2.64-14.4.32-18.2-1.26-2.06-3.75-4.78-13.38-10.64-5.85-3.57-11.6-6.62-11.84-6.75l-.2-.1-.21-.1a14.39,14.39,0,0,0-5.74-1.1,119.46,119.46,0,0,0,.18-26.59l.22-.57c4.33-11.45,1.92-14.94.89-16.43a7.89,7.89,0,0,0-5.38-3.36c-3-9.07-7.3-16.78-12.58-22.53-7.47-8.12-17-12.42-27.41-12.42Z" style="fill:#a5f8ff"/><path d="M613.84,677.56c18,0,29.75,15.24,34.92,35.56a13.37,13.37,0,0,0,3-.49,2.2,2.2,0,0,1,.85-.2c3.08,0-.85,10.4-.85,10.4l-1.08.12a113.22,113.22,0,0,1-1.29,38.3,23.07,23.07,0,0,1,8.38-1.79,7.59,7.59,0,0,1,3,.49s5.74,3,11.46,6.52l0,0c4.92,3,9.83,6.32,11,8.31,2.64,4.32-3.59,20.85-5.75,25.64-2,4.39-12.4,10.19-17.08,12-7.93,14.07-19.21,21.43-27.63,23.09,4.44,18.93,14.33,41.06,21.53,73.09,0,.1,0,.21.07.32.21.92.41,1.86.61,2.8.06.25.11.49.16.74l.51,2.46.21,1c.22,1.12.45,2.24.66,3.38,3.69,19.34.87,33.18-5.63,42.8a225.94,225.94,0,0,1-3.88,30.32c36.29,7.9-1.19,27-58.45,28.34q-2.29.06-4.41.06c-38.78,0-33.49-13.38-12.49-22.71a167.19,167.19,0,0,1-3-29c-.63-.61-1.26-1.27-1.88-2-.05-.07-.11-.13-.16-.19-.32-.36-.63-.73-.95-1.12l-.15-.18c-.72-.9-1.43-1.86-2.13-2.9l-.14-.21c-.33-.5-.66-1-1-1.54l0-.07c-.71-1.15-1.4-2.38-2.07-3.7l-.1-.19q-1-2-2-4.26a0,0,0,0,0,0,0c-.31-.74-.61-1.51-.91-2.3a.78.78,0,0,0,0-.14c-.6-1.62-1.18-3.34-1.72-5.16l0-.11c-.81-2.75-1.55-5.74-2.2-9l0-.15q-1-4.87-1.64-10.52c0-.06,0-.11,0-.17-.29-2.53-.54-5.19-.73-8v-.06c-.09-1.37-.17-2.78-.24-4.21v-.13c-.13-2.9-.21-5.93-.22-9.1v-.3c-.07-25.48,3.85-59.75,14.42-105.87,6.31-27.52-4.1-64.27,6.49-90.59h0c-3-6,2.92-11.62,2.92-11.62s1.05.46,2.88,1.21c5-6.63,12.11-12.18,22.36-16.15a39.84,39.84,0,0,1,14.42-2.94M630.65,814c1.74-1.23,3.67-2.71,5.89-4.52a27.54,27.54,0,0,1-5.67,2.18c-.09.78-.16,1.56-.22,2.34m-22.9,167.2a83.28,83.28,0,0,1-16.64-1.69c-.43,4.36-1.05,8.72-1.83,12.87a111.64,111.64,0,0,1,25.42-3c1.32,0,2.64,0,4,.08,7,.29,13,.76,18.1,1.39a116.07,116.07,0,0,1-2.37-14.9c-8.15,3.75-17.52,5.29-26.64,5.29m6.09-306.65v0a43.12,43.12,0,0,0-15.51,3.14c-9.42,3.66-16.71,8.68-22.22,15.31l-.74-.32-1.82-.79-1.44,1.37c-.29.28-6.7,6.52-4.08,13.84-5.65,15-5,33-4.42,50.36.49,14.25,1,27.7-1.75,39.51-9.7,42.29-14.58,78.14-14.5,106.55v.29c0,3.18.09,6.28.22,9.23v.07s0,.07,0,.11c.07,1.54.15,2.93.24,4.24v0c.19,2.76.44,5.49.74,8.12l0,.2c.44,3.77,1,7.38,1.67,10.72l0,.2c.65,3.22,1.41,6.32,2.27,9.2a1.24,1.24,0,0,0,0,.16c.54,1.8,1.13,3.59,1.77,5.31l2.84-1-2.81,1,0,0,0,.07,0,.07c.33.88.63,1.65.93,2.36l0,.11,0,0c.62,1.5,1.3,3,2,4.37l.06.13,0,0q1.07,2.1,2.19,3.93v0l0,0,0,0c.33.53.67,1.06,1,1.62l.1.14,0,.07c.75,1.11,1.52,2.15,2.3,3.11l.1.13,0,.06q.5.6,1,1.17l.2.24c.39.43.77.84,1.15,1.23a173,173,0,0,0,2.62,26c-6.58,3.19-17.33,9.66-15.72,17.26,1.45,6.85,11.79,10.18,31.59,10.18,1.44,0,2.95,0,4.48-.06,19.35-.46,37.89-3,52.22-7.08,10.32-3,22.76-8,23.46-15.23.64-6.77-8.28-9.89-13.81-11.3a227.37,227.37,0,0,0,3.34-27.08c7.22-11.16,9.11-26.07,5.63-44.33-.21-1.13-.43-2.24-.65-3.35l0-.06-.12-.59-.09-.43-.15-.73-.36-1.74-.1-.46-.07-.3c-.2-.95-.4-1.89-.62-2.83l0-.19,0-.11c-4.19-18.64-9.22-33.78-13.67-47.14-2.84-8.56-5.35-16.1-7.17-23.16,8.11-2.6,18.4-9.67,26.11-22.88,4.2-1.85,15.18-7.53,17.72-13.18a110.14,110.14,0,0,0,4.82-13.41c2.83-9.94,1.78-13.34.75-15-.89-1.47-3.07-3.85-12-9.32-5.75-3.5-11.39-6.5-11.63-6.62l-.09,0-.09,0a10.52,10.52,0,0,0-4.24-.75,23.64,23.64,0,0,0-4.53.49,115.93,115.93,0,0,0,.77-31.6l.56-1.46c2.38-6.3,2.83-10.59,1.34-12.74a3.94,3.94,0,0,0-3.3-1.72h0a5,5,0,0,0-1.67.3c-6.43-22.4-19.85-35.17-37.11-35.17Zm-6.09,309.65a70.05,70.05,0,0,0,24.1-4c.31,2.43.69,4.84,1.13,7.18-4.33-.43-9.09-.75-14.2-1-1.34,0-2.71-.08-4.08-.08A114.63,114.63,0,0,0,593,988.52c.28-1.81.53-3.64.75-5.46a85.34,85.34,0,0,0,14,1.15Z" style="fill:#fff"/><path d="M618.66,989.43c-48-2-98,33-30,31.41S696.7,992.65,618.66,989.43Z" style="fill:#3d605f"/><path d="M627.06,816.37c-10.57,6.27-11.81,17.24,0,19.39s38.13-13.42,42.42-52.62-17.79,13.29-25.54,20.07S631.09,814,627.06,816.37Z" style="fill:#9773cf"/><path d="M641.3,939.89c16.85-14.74,8.06,49.35,3.22,62.73S625.19,954,641.3,939.89Z" style="fill:#9773cf"/><path d="M564.78,797.65c9-39.32-16.1-97.47,34.64-117.15s66,64.43,39.47,108.6c-22,36.49,4.83,62.65,17.71,130.28s-53.62,68-79.73,55.55C560.65,967.18,533.37,934.64,564.78,797.65Z" style="fill:#7847b0"/><path d="M571.23,819.69c17.58-5.49,6,23.31,21.43,52.7,10.55,20.14.05,21.59-12,7.3C571.77,869.16,548.68,826.73,571.23,819.69Z" style="fill:#9773cf"/><path d="M577.27,749.08c0-14.72,12.58,2.95,27,9.9s34.94.71,38.24-.26,4.8,7.6-6.48,10.82S577.27,777.74,577.27,749.08Z" style="fill:#fff"/><path d="M633.9,734.1c17.6-2.52,9.72,19.84,0,18.63S624.79,735.41,633.9,734.1Z" style="fill:#2b1a45"/><path d="M593.52,717.52c-10.57-3.12-19,18.34-2.9,23S608.5,721.93,593.52,717.52Z" style="fill:#2b1a45"/><path d="M593.79,719.29c13.63,4.38,7.72,27.28-6.12,17.91C579.31,731,586.05,716.81,593.79,719.29Z" style="fill:#fff"/><path d="M635.59,735.11c14-2.12,5.1,17.32-.93,16.61S623.64,736.92,635.59,735.11Z" style="fill:#fff"/><path d="M634,739.43c-4.53,1-2.92,8.47,1.64,8.17S641.49,737.77,634,739.43Zm.71,3.13c-1.92.4-3-2.62,0-2.72C638.84,739.7,636.57,742.16,634.66,742.56Z" style="fill:#f61dac"/><path d="M591.33,726.78c-4.53,1-2.92,8.46,1.65,8.16S598.87,725.12,591.33,726.78Zm.71,3.13c-1.91.4-3-2.62,0-2.72C596.22,727.05,594,729.5,592,729.91Z" style="fill:#f61dac"/><path d="M600.63,764.71a54.3,54.3,0,0,1-23.3-13.21c1.77,26.85,47.68,22,58.73,18.85,6.52-1.86,8.79-5.51,8.9-8.08C633,771.49,600.63,764.71,600.63,764.71Z" style="fill:#f61dac"/><path d="M653.64,905.47c-38.81,19.22-88.74-.24-103.25-6.73-.87,54,15.39,70.89,26.48,76.19C603,987.41,669.49,987,656.6,919.38,655.68,914.53,654.69,909.91,653.64,905.47Z" style="fill:#b2d900"/><path d="M581.7,939.89c17.28,4.9,8.86,62.34,0,76.48S557.53,933.05,581.7,939.89Z" style="fill:#9773cf"/><path d="M574.18,695.44s23.36,10.13,44.48,15.09c16.22,3.8,31.13,2.91,33.11,2.1,4.57-1.88,0,10.2,0,10.2s-11.88,1.71-31-1.36c-20.26-3.24-47.92-11.35-49.46-14.41C568.27,701.08,574.18,695.44,574.18,695.44Z" style="fill:#15d5f3"/><path d="M660.79,760s19.89,10.54,22.52,14.85-3.59,20.85-5.75,25.64-14.37,11.26-18.2,12.46-20.39-17-21.81-18.6c-2.63-3,3.42-23.57,6.14-28.6S657.32,758.39,660.79,760Z" style="fill:#f61dac"/><path d="M683.31,774.8c2.64,4.32-3.59,20.85-5.75,25.64s-14.37,11.26-18.2,12.46,2.29-26.84,5-31.88S680.68,770.49,683.31,774.8Z" style="fill:#ff8ee3"/><path d="M674,784c-9,2.08-12.34,21.92-3.65,18.63S681.46,782.29,674,784Z" style="fill:#03485a"/><path d="M674,784c1.5,1.67,2.1,5.31,1.08,9.94-1.13,5.08-2,5.57-4.73,8.69C679,799.36,681.46,782.29,674,784Z" style="fill:#b01082"/><path d="M673.37,785.64c2.74-.08.84,5.63-1,5.7S669.66,785.77,673.37,785.64Z" style="fill:#fff"/><path d="M672.27,766.49s-13.78,1-16.75,6.24c0,0-6.14,5.86-6.22,33.56l-1.9-1.65s-1-28.07,7.56-34.47c0,0,2.16-2.71,15.36-4.86" style="fill:#b01082"/><path d="M650.38,779.59c-1.44-1.71-4.68-3.35-18.6,3.36S620.5,789.81,620,802.46s9.74,10.58,16.89,6.85,10.7-5.38,11.46-10.92C649.17,792.48,650.38,779.59,650.38,779.59Z" style="fill:#ff8ee3"/></svg>