<svg id="Ebene_1" data-name="Ebene 1" xmlns="http://www.w3.org/2000/svg" viewBox="0 0 1047 1096.3"><path d="M310.78,994.66c-67.48-.46-78.54-6.43-80.47-12.22a5.87,5.87,0,0,1,.06-3.85l-5-1.9,9.92-3.46c5.46-3.47,14.62-6.24,21-7.89l-.8-25.41c-1.52,0-3-.08-4.46-.14-26.54-1.24-30.29-9.53-30.17-14.36,0-.9,0-3.55,0-5.69a8.13,8.13,0,0,1-3.64-2.77c-2.14-3.2-8.91-14.86-14.81-26.7-11.94-23.95-10.12-28-9.25-30a5.1,5.1,0,0,1,4-3.06c2.67-.39,10.55-.66,19.61-.66,8.87,0,38.36.31,55.79,4.1l4.52-4,.6-1.51c9.66-24.47,6.35-35.8,1.77-51.49-2.92-10-10.7-42.58,4.21-63.74-15.71-4.33-25.42-8.54-28.46-12.35a7.07,7.07,0,0,1-3-6.28c.28-2.93,2.49-5,5.9-5.64a5,5,0,0,1,.9-.06c.17,0,16.54.08,40.16,6.41-1-15.34.16-31.69,9.22-32.85l.62-.07c1-.1,2.17-.16,3.43-.16a52.8,52.8,0,0,1,11.72,1.38C337.25,692.61,379.57,703,384,741.6c1.86,12.6-4.82,19.06-9.19,21.87a5.48,5.48,0,0,1-.41,1.94,5.74,5.74,0,0,1-.94,1.53c2.95,11.48,2.32,24.18-1.87,37.79C360,842.32,367.2,861,374.84,880.79c4.37,11.34,8.89,23.06,10.25,38.65a27.91,27.91,0,0,1-3,15.08,9.78,9.78,0,0,1,5.12,5.73c1.11,3.57-.35,7-1.56,9,.88,3.07,1.8,9.4-.5,20.1a8.28,8.28,0,0,1-.59,1.76c3.51,1.7,7.18,4.43,6.54,8.53-.52,3.41-3.62,7.75-23,11.08-14,2.4-33.77,3.78-57.2,4h-.06Z" style="fill:#a5f8ff"/><path d="M312.48,692.44a49.77,49.77,0,0,1,11,1.32c20.3,3.53,53.3,15.62,57,48.3,1.94,13-6.61,18.2-9.71,19.62a2.44,2.44,0,0,1-1.39,3.85h0c3.24,10.57,3.4,23.3-1.18,38.17-18.54,60.14,9.69,73.59,13.37,116A25.88,25.88,0,0,1,377,936.32c12.44,3.32,4.71,12.37,4.71,12.37s3.09,5.45,0,19.87a6.48,6.48,0,0,1-3.18,3.92c24.14,7.9-.05,18.07-67.7,18.68-70.74-.48-83.74-7.37-74.8-14.16l-.42-.16,1.29-.45c4.57-3,13.32-6,23.06-8.33l-1-31.59c-2.54,0-5.11-.06-7.69-.18-19-.88-27-5.59-26.83-10.77,0-1.33,0-5.9,0-8.18-2.2-.73-3.68-1.5-4.22-2.31-4.42-6.62-30.77-53.12-22.46-54.34,2.29-.34,9.61-.62,19.1-.62,17.63,0,42.72,1,56.77,4.41q3.09-2.75,6.49-5.72c6.23-15.91,11.43-26.44,2.78-56.06-6.25-21.4-7.78-49.17,7-64.75-30.49-7.81-32.15-13-32.15-13h0c-2-.77-3.61-5,1-5.84h.3c2.51,0,20.25.66,44,7.63-.42-4.55-2.7-33,5.79-34.1l.47,0c.89-.09,1.95-.15,3.13-.15M266.66,939a16.43,16.43,0,0,1,2.09-2.74l-2.3.11.21,2.63m45.82-253.51h0a37.07,37.07,0,0,0-3.79.18l-.69.08c-11.17,1.43-12.05,17.14-12.34,22.3-.18,3.23-.19,6.51-.11,9.47-21.6-5.29-36.33-5.36-36.5-5.36a8.48,8.48,0,0,0-1.49.11c-6,1-8.45,5.21-8.79,8.76a10.54,10.54,0,0,0,4.07,9.18,22,22,0,0,0,6.2,4.54c4.47,2.4,10.93,4.86,19.25,7.33-3.93,7.13-6.22,15.73-6.8,25.7-.86,14.43,2.06,28,4.65,36.93,7.56,25.87,3.89,35.16-1.67,49.23l-.28.72-2.58,2.27c-17.33-3.42-43.7-3.81-54.79-3.81-9.35,0-17.25.27-20.12.7a8.55,8.55,0,0,0-6.69,5.1c-1.59,3.56-1.11,8.1,1.64,15.67a174.78,174.78,0,0,0,7.67,17.29c6,12,12.85,23.81,15,27.08a10.14,10.14,0,0,0,3.07,2.92c0,1.5,0,2.94,0,3.51-.08,3.3,1.15,9.46,10.4,13.57,5.49,2.45,13.27,3.92,23.11,4.37l1.23.05.6,19.34c-6.63,1.83-14,4.32-19,7.38l-.52.18-18,6.31,11.29,4.33a9.69,9.69,0,0,0,.47,2.68c2,5.9,8.93,9.21,24,11.41,13.37,1.94,33.47,3,59.72,3.2h.11c23.62-.21,43.6-1.61,57.77-4,17.3-3,24.79-7,25.87-14,.34-2.19.17-6.42-4.79-10-.33-.24-.68-.48-1.05-.71,2-9.55,1.53-15.87.68-19.71a13.9,13.9,0,0,0,1.15-10.45,12.47,12.47,0,0,0-4.06-5.94,30.65,30.65,0,0,0,2.13-14.13c-1.39-16.09-6-28-10.47-39.61-7.73-20-14.41-37.33-3.18-73.77,4.21-13.64,5-26.44,2.29-38.14a9.23,9.23,0,0,0,.82-2.12c6.22-4.59,11.12-12.72,9.43-24.35-1.88-16.31-10.64-30.13-25.32-40-13.54-9.08-29.07-12.83-37.24-14.27a56.78,56.78,0,0,0-12.42-1.45Z" style="fill:#a5f8ff"/><path d="M312.48,692.44a49.77,49.77,0,0,1,11,1.32c20.3,3.53,53.3,15.62,57,48.3,1.94,13-6.61,18.2-9.71,19.62a2.44,2.44,0,0,1-1.39,3.85h0c3.24,10.57,3.4,23.3-1.18,38.17-18.54,60.14,9.69,73.59,13.37,116A25.88,25.88,0,0,1,377,936.32c12.44,3.32,4.71,12.37,4.71,12.37s3.09,5.45,0,19.87a6.48,6.48,0,0,1-3.18,3.92c24.14,7.9-.05,18.07-67.7,18.68-70.74-.48-83.74-7.37-74.8-14.16l-.42-.16,1.29-.45c4.57-3,13.32-6,23.06-8.33l-1-31.59c-2.54,0-5.11-.06-7.69-.18-19-.88-27-5.59-26.83-10.77,0-1.33,0-5.9,0-8.18-2.2-.73-3.68-1.5-4.22-2.31-4.42-6.62-30.77-53.12-22.46-54.34,2.29-.34,9.61-.62,19.1-.62,17.63,0,42.72,1,56.77,4.41q3.09-2.75,6.49-5.72c6.23-15.91,11.43-26.44,2.78-56.06-6.25-21.4-7.78-49.17,7-64.75-30.49-7.81-32.15-13-32.15-13h0c-2-.77-3.61-5,1-5.84h.3c2.51,0,20.25.66,44,7.63-.42-4.55-2.7-33,5.79-34.1l.47,0c.89-.09,1.95-.15,3.13-.15M266.66,939a16.43,16.43,0,0,1,2.09-2.74l-2.3.11.21,2.63m45.82-249.51h0c-1.24,0-2.38.06-3.41.16l-.57.06c-7.87,1-8.61,14.22-8.85,18.56a130.26,130.26,0,0,0,.13,14.47c-23.93-6.5-40.55-6.58-40.73-6.58a4.81,4.81,0,0,0-.81,0c-3.18.56-5.23,2.5-5.49,5.2a6.53,6.53,0,0,0,2.84,5.86c2.9,3.74,13,8.06,29,12.43-15.35,21-7.49,53.84-4.56,63.89,7.94,27.19,3.86,37.52-1.79,51.82l-.64,1.62c-1.67,1.46-3.27,2.88-4.8,4.23-17.35-3.83-47-4.14-55.93-4.14s-16.89.26-19.54.65a4.66,4.66,0,0,0-3.62,2.77c-.77,1.74-2.58,5.82,9.24,29.56,5.89,11.82,12.65,23.45,14.78,26.64a8.11,8.11,0,0,0,3.73,2.73v.31c0,2.14,0,4.81,0,5.71-.12,4.65,3.58,12.63,29.69,13.85q2.4.11,4.92.15l.83,26.29c-6.4,1.63-15.8,4.43-21.31,7.95l-.95.33-7.73,2.7L231,978.3a5.33,5.33,0,0,0-.22,4c1.39,4.19,7.62,6.79,20.82,8.72s33.11,3,59.17,3.16c23.46-.21,43.22-1.59,57.18-4,10-1.72,21.64-4.48,22.6-10.65.62-4-3.23-6.62-6.74-8.23a7.53,7.53,0,0,0,.8-2.1c2.33-10.9,1.32-17.17.44-20.07,1.18-1.88,2.71-5.22,1.62-8.72a9.54,9.54,0,0,0-5.31-5.66,27.61,27.61,0,0,0,3.22-15.26c-1.35-15.52-5.86-27.21-10.22-38.51-7.67-19.86-14.91-38.63-3.27-76.39,4.2-13.62,4.8-26.32,1.79-37.78a5.06,5.06,0,0,0,1.41-3.61c4.25-2.65,11.05-9,9.2-21.52-1.76-15.35-9.7-27.86-23.59-37.18-13-8.71-28-12.31-35.81-13.68a52.39,52.39,0,0,0-11.62-1.37Z" style="fill:#fff"/><path d="M294.6,963.48c-32.76-.79-127.65,26.71,16.2,27.68C415.48,990.22,416.15,966.38,294.6,963.48Z" style="fill:#3d605f"/><path d="M257.71,725s1.82,5.74,37.25,14.25,12-8,12-8S262.2,716.93,257.71,725Z" style="fill:#e95800"/><path d="M295.87,942.32c-14.89,2.84-29.08,22.23-10.4,29.08s93.12,11.59,96.21-2.84,0-19.87,0-19.87,9.48-11.1-9.44-13.23S295.87,942.32,295.87,942.32Z" style="fill:#88775b"/><path d="M283.35,855.9c-35.48,30.86-49.61,45.88-7.4,27.42C298.93,873.27,296.75,844.25,283.35,855.9Z" style="fill:#9773cf"/><path d="M297.53,923.87s-31.21,4.73-32.63,20.34,6.14,36.36,10.4,26.93,2.84-20.55,26-20.55Z" style="fill:#9773cf"/><path d="M282.86,802.7c-7.54-25.82-8.24-60.92,18.31-72.68s85.6,13.54,67.06,73.68,9.69,73.59,13.37,116-111.24,72.26-111.86,0S298.43,856,282.86,802.7Z" style="fill:#7847b0"/><path d="M345.74,928.69S319,945.5,324,960.37s20.17,30.88,20.3,20.53-5.45-19.61,15.63-29.23C372.36,946,358.45,918.46,345.74,928.69Z" style="fill:#9773cf"/><path d="M355.16,861.81C312,880.44,294,890.47,339.79,885.69,364.74,883.09,371.46,854.77,355.16,861.81Z" style="fill:#9773cf"/><path d="M286.89,791.71c3.29-6.81,8.69,1.3,20.8,4,14.22,3.19,29.09-12.77,43.75-12.3s8.74,28.85-8,33.58S274.83,816.59,286.89,791.71Z" style="fill:#302514"/><path d="M318.81,806.37c-7.12-2.31-12.57-1.15-23.23,5.87,13.77,7.13,36.25,8,47.82,4.77A20.34,20.34,0,0,0,353,810.8C351,796.32,327.79,801.64,318.81,806.37Z" style="fill:#f61dac"/><path d="M292.85,763.15c-13.08,1.08-10.73,21.57,3.51,20.85S307.79,761.91,292.85,763.15Z" style="fill:#2b1a45"/><path d="M339.82,778.64c3-3,15.61-8.42,22.87,2.75,1.25,2-3.36-2.87-10.9-3.25S337,781.48,339.82,778.64Z" style="fill:#2b1a45"/><path d="M295.26,764.26c-10.73-.33-14,17.65.63,18C309.09,782.57,303.78,764.53,295.26,764.26Z" style="fill:#fff"/><path d="M294.6,770.58c-4.17.35-6.84,7,0,8.6S301.87,770,294.6,770.58Zm.55,4.06c-2.46.08-5.07-2.91-.55-3.53S297.62,774.56,295.15,774.64Z" style="fill:#2b1a45"/><path d="M303.15,727.37s-3.49-33.55,5.73-34.73,66.67,5.68,71.64,49.42c2.36,15.84-10.8,20.07-10.8,20.07Z" style="fill:#e72e00"/><path d="M303.15,727.37s-3.49-33.55,5.73-34.73,39.37,2.13,41.49,29.87c2.37,15.84-9.84,22.09-9.84,22.09Z" style="fill:#e67200"/><path d="M258.75,719.12c.7-.12,59.11.71,111.6,41.85,2.6,3.55-.93,4.56-.93,4.56S305.09,720.07,258.75,725C256.39,725.74,253.31,720.07,258.75,719.12Z" style="fill:#ffce00"/><path d="M370.35,761a196.39,196.39,0,0,0-46.87-27.1c.64.83,1,1.68.41,2.27a6.36,6.36,0,0,1-3.74,2,309.61,309.61,0,0,1,49.27,27.35S373,764.52,370.35,761Z" style="fill:#e95800"/><polygon points="258.75 930.73 259.94 968.33 235.58 976.84 264.73 987.95 292.33 976.84 269 968.37 266.08 931.68 258.75 930.73" style="fill:#b6a395"/><path d="M312.92,913.32c-.05-4.45-10.36-9-36.67-11.76-30.38-3.25-51.78,6.44-51.85,14.83,0,1.55,0,7.58,0,9.13-.14,5.18,7.84,9.89,26.83,10.77,31.41,1.46,61.76-6.07,61.68-13.74C312.9,921,312.94,915,312.92,913.32Z" style="fill:#d5cdc7"/><path d="M276.25,901.56c-49-5.24-74.66,23.2-25,25.51S347.89,909.21,276.25,901.56Z" style="fill:#b6a395"/><polygon points="285.34 892.81 332.07 893.56 301.31 923.08 288.72 919.18 285.34 892.81" style="fill:#b6a395"/><path d="M333.64,895.56s-25.84,30-34,30-75-3.9-79.44-10.52-30.77-53.12-22.46-54.34,83-1.74,86.32,9.42,12.73,50.63,15.58,50.5S332.34,884.78,333.64,895.56Z" style="fill:#e67200"/><polygon points="259.94 968.33 264.73 970.22 264.73 987.95 235.58 976.84 259.94 968.33" style="fill:#d5cdc7"/><polyline points="264.73 970.22 262.65 935.94 258.92 935.94 259.94 968.33" style="fill:#d5cdc7"/><path d="M838.1,1051.67c-62.7,0-79.17-16.24-83.41-25.92-3.36-7.69-1.44-16.22,5.39-24.14V965.52l26.19-4.09c-3.17-18.94-1.64-32.63,4.55-40.73a19.34,19.34,0,0,1,11.44-7.34c0-.07.11-1.2.11-1.2.09-.91.19-1.83.29-2.75l.08-.73c.14-1.19.28-2.36.43-3.52l0-.13c.14-1.09.29-2.17.45-3.25l.05-.35.08-.52.41-2.66.12-.75c.37-2.23.78-4.48,1.21-6.69l.14-.74c.17-.86.35-1.73.53-2.59l.16-.77c.44-2.07.92-4.21,1.43-6.36l.15-.66c.21-.85.41-1.68.62-2.5l.18-.73c.24-1,.48-1.88.72-2.81l0-.16c.28-1.09.56-2.1.83-3.11l.17-.6c.21-.78.44-1.58.66-2.38,0,0,.69-2.4.93-3.22l.11-.39c.28-1,.57-1.92.85-2.87l1.09-3.55.85-2.72,1-3.07-2.14-1.77a74.75,74.75,0,0,1-22.6-9.68,15.11,15.11,0,0,1-7.12-11.71l-20.5-20.81,10.73-12.94L799,811.5l-1.58,2,18.87,15.47a74.33,74.33,0,0,0,7.53-1.87l.56-1.89c.16-.54.63-2.21.63-2.21.19-.64.36-1.28.53-1.91l0-.11c.19-.71.36-1.36.52-2l.15-.58c.13-.53.25-1,.36-1.48l.14-.61c.12-.53.24-1,.35-1.57l.07-.34c.14-.65.26-1.26.37-1.87l.1-.51c.08-.44.15-.88.22-1.32,1-6.12,1-11.13,0-15.34-.46-2-1.07-4.39-1.76-7.16-6.74-26.91-20.75-82.9-1.26-109.62,5.94-8.14,14.48-12.9,25.42-14.16a23.33,23.33,0,0,1,7.94-10.78l.22-.16c.38-.28.77-.56,1.19-.83l.35-.22.11-.07,1.06-.63c.15-.09.33-.18.5-.26l.13-.07c.33-.17.68-.35,1.05-.52a5.28,5.28,0,0,1,.58-.26l.14-.06c.35-.16.7-.31,1.08-.45.2-.08.41-.16.63-.23l.17-.06c.39-.14.76-.27,1.15-.39l.89-.26,1.21-.31c.31-.08.64-.15,1-.21l1.29-.25,1-.16,1.37-.17,1.11-.1c.47,0,1-.07,1.45-.09H876c.34,0,.68,0,1,0h2.78l1.52.08.49,0,.93.06.43,0a9.56,9.56,0,0,1,1.68-3.2,10.93,10.93,0,0,1,8.66-3.93,15.88,15.88,0,0,1,6.31,1.39c5.79,2.48,9.33,6.51,9.46,10.78a7.32,7.32,0,0,1-.88,3.78l.32.27c.36.32.73.66,1.08,1l.17.18c.33.34.6.62.86.91l.3.35c.24.28.46.55.67.83l.26.33c.28.37.55.75.8,1.13l.09.14c.23.35.44.7.65,1l.23.42c.13.23.29.53.44.82l.17.35c.19.39.37.78.53,1.16l.07.17c.13.32.29.73.43,1.15l.12.34c.11.33.21.63.3.94l.1.37c.1.36.19.71.28,1.07l0,.15c.1.46.18.87.26,1.29,0,.12,0,.23,0,.34.06.32.1.63.14.94l.05.37c0,.32.07.65.1,1l0,.34c0,.34,0,.75.07,1.16v.32c0,.3,0,.6,0,.9v.4c0,.3,0,.59,0,.88v.35c0,.36,0,.75-.07,1.15v.17c0,.37-.06.68-.09,1l0,.41c0,.22-.05.5-.09.77l-.06.4c0,.29-.09.64-.14,1,0,.1,0,.2,0,.29,0,.25-.1.54-.15.82,0,0-.17.84-.22,1.06l-.08.39q-.09.39-.18.75l-.06.26a53.79,53.79,0,0,1-3.19,9.25c6.54,20.28-2.28,46.46-9.41,67.59-4.26,12.62-8.28,24.53-7.8,31.7a179.32,179.32,0,0,0,2.5,20.29l.25,1.33c.11.57.46,2.36.53,2.68,4.55,6.08,7.28,16.27,7.53,28.2l1.32,4.42.93,3.15.83,2.89c.17.59.8,2.87.8,2.87.15.52.78,2.84.78,2.84.25,1,.5,1.9.74,2.87,0,0,.57,2.27.74,3l.19.81,13.71,21.62-.2,1.3c0,.17-2.42,15.85-4,25.36,7.87,3.71,24.42,13.17,30.38,29.32,3.76,10.17,2.73,21.19-3.06,32.76a53.82,53.82,0,0,1-21,22.84c7.49,9.37,7,17,5,21.89-6.07,15.2-32.93,23.86-79.82,25.72-5.3.22-10.5.32-15.44.32Zm62.3-68.27a93.93,93.93,0,0,1,21.14,13.34c7.64-4.2,14.26-10.65,19.7-19.22,4.51-7.8,5.54-15.68,3.07-23.41S934,935.22,919.94,927.68l-.19.21a9.17,9.17,0,0,1-2.78,1.65,73.57,73.57,0,0,1-9.65,27.53A103.48,103.48,0,0,0,900.4,983.4Zm-77.82-9.35,1.47-.23a50.69,50.69,0,0,1-19.34-23.43,23.09,23.09,0,0,0-3.74,9.19Z" style="fill:#a5f8ff"/><path d="M893.56,644.39a12.58,12.58,0,0,1,4.93,1.1c8.11,3.48,9.27,9.44,4.63,11.79.25.15.51.31.76.48l.31.21c.29.2.57.4.84.61s.25.19.36.28l.78.63.27.23c.33.29.64.59.95.89l.18.19c.24.24.47.49.69.74l.26.3c.2.23.39.46.57.7l.22.27c.24.33.47.65.69,1l.07.11c.19.3.38.6.55.9l.18.31q.21.38.39.75l.16.31c.16.33.31.67.45,1,0,0,0,0,0,0,.14.35.28.71.4,1.07l.11.3c.09.27.17.53.25.8l.09.32q.14.46.24.93s0,.11,0,.16c.08.36.15.73.22,1.09a2.89,2.89,0,0,1,0,.29c0,.27.09.55.13.83,0,.11,0,.22,0,.34,0,.28.07.57.09.86a1.94,1.94,0,0,1,0,.24c0,.36,0,.73.07,1.09v.25c0,.28,0,.56,0,.84V677c0,.26,0,.53,0,.79,0,.1,0,.2,0,.3q0,.52-.06,1a1.5,1.5,0,0,1,0,.22c0,.28,0,.56-.07.84,0,.12,0,.24,0,.36s-.05.48-.09.71,0,.23,0,.34l-.15,1a1.16,1.16,0,0,1,0,.18c0,.27-.09.54-.14.81,0,.12,0,.25-.07.37s-.09.41-.13.61-.05.25-.08.38-.1.44-.16.66c0,.07,0,.15-.05.23h0a48,48,0,0,1-3.57,9.89h0c11.35,31.22-18.3,79.13-16.93,99.74a181.64,181.64,0,0,0,2.55,20.69c.08.45.16.9.25,1.35s.23,1.17.34,1.75c.08.41.16.82.25,1.22l.12.57c4.55,5.59,7.12,16,7.3,27.23.44,1.46.88,2.93,1.31,4.4.05.15.1.31.14.47.22.73.44,1.46.65,2.19.09.32.19.63.28.95.17.59.35,1.19.52,1.79l.3,1.07c.17.59.34,1.18.5,1.77.1.35.2.7.29,1.06.2.7.39,1.4.58,2.1.06.25.13.49.2.73.24.94.49,1.88.73,2.83.08.3.15.59.22.89l.51,2,.27,1.13a1.89,1.89,0,0,0,0,.23l13.32,21s-2.91,19.06-4.44,28c8.28,3.49,46.35,21.91,28.09,58.43a50.16,50.16,0,0,1-23.42,23.4c18.66,19.23,10,42-69.41,45.12q-8,.32-15.31.31c-75.23,0-93.62-24.55-74.52-45.23V968.52l26.77-4.18c-7.36-38.47,5.38-47.17,15.16-47.93a1,1,0,0,1,0-.17c.07-.92.15-1.84.23-2.76,0-.32.06-.65.1-1,.08-.91.18-1.81.28-2.71,0-.25.05-.49.08-.73q.19-1.74.42-3.45s0-.06,0-.09q.21-1.63.45-3.24c0-.1,0-.21,0-.31s0-.33.07-.5c.14-.89.27-1.78.42-2.66l.12-.76q.56-3.34,1.18-6.58l.15-.73c.17-.86.34-1.71.52-2.56l.15-.76q.68-3.18,1.41-6.28c.05-.22.11-.43.16-.65l.6-2.45c.06-.26.13-.51.19-.76.23-.92.46-1.84.7-2.75l.06-.23c.27-1,.53-2,.81-3,0-.2.1-.39.16-.59.21-.79.44-1.58.66-2.37.07-.24.13-.48.2-.72l.72-2.47c0-.13.07-.26.11-.39l.84-2.84c.06-.17.11-.34.16-.51.23-.77.46-1.52.69-2.27.08-.25.15-.5.23-.75l.69-2.21c.05-.16.11-.33.16-.5.28-.9.57-1.79.85-2.68.05-.15.09-.29.14-.45.24-.72.47-1.45.7-2.17l-4.62-3.82a71.13,71.13,0,0,1-22.26-9.36A11.59,11.59,0,0,1,788,824l-2.06-1.71L784.58,824l-16.29-16.54,6.68-8.06,18.95,12.92L792.55,814l22.78,18.68a79,79,0,0,0,11.32-2.8c.32-1.05.63-2.08.93-3.1l.18-.6c.16-.54.31-1.08.47-1.61,0-.21.11-.42.17-.63.19-.66.37-1.31.54-2a.75.75,0,0,0,0-.16c.19-.69.37-1.38.54-2.06.05-.19.09-.38.14-.57.13-.5.25-1,.36-1.49l.15-.63c.13-.55.25-1.09.36-1.63,0-.12.06-.24.08-.37.14-.64.26-1.28.38-1.91,0-.18.07-.36.1-.53l.24-1.39c1-6.15,1.14-11.7,0-16.69-6-25.48-35.33-123.16,21.73-126.89v-.13a19.11,19.11,0,0,1,7.32-11.12,1.92,1.92,0,0,1,.17-.13c.33-.24.67-.48,1-.72l.4-.24c.3-.19.6-.38.92-.55.17-.1.35-.19.53-.28s.6-.32.92-.46.42-.19.63-.28l.95-.4.72-.26,1-.34.8-.23,1.07-.28.87-.19,1.15-.22,1-.14c.4-.06.82-.11,1.24-.15s.67-.08,1-.1.89-.06,1.34-.08l1.08-.05h1.46l1.12,0,1.6.08,1.16.08c.58,0,1.19.12,1.79.19l1.16.13,1,.15c-.83-3.66,2.06-7.55,7.09-7.55M921,1001c8.53-4.12,16.49-11,23.24-21.61,15.57-26.86-9.55-48.91-26.41-56.6a21.13,21.13,0,0,1-.56,2.67,31.83,31.83,0,0,1-3.5,1.79c-1.51,11.37-4.9,20.73-9.58,28.28a106.47,106.47,0,0,0-7.54,30c9.69,4.33,18.21,9.68,24.35,15.42M797.14,963.28l2.48-.39,19.84,13.28v2q7.62-1.35,16-2.17c-14-5.82-25.29-16.93-29.16-32-5.47,3.55-9,11.72-9.15,18.85,0,.16,0,.31,0,.46m96.42-325.89a14.38,14.38,0,0,0-11.39,5.25,13,13,0,0,0-1.17,1.72l-1-.05-1,0H877l-1.13,0h-.12l-1.58.1-1.17.11-1.51.19q-.59.07-1.14.18c-.46.07-.93.16-1.39.26l-1.07.23c-.46.11-.9.23-1.33.35l-1,.28-1.26.42h0l-.16.06-.71.26-1.23.51-.11.05-.73.32-1.14.58-.1,0-.64.34c-.44.24-.85.49-1.19.71l0,0-.48.3c-.4.26-.82.55-1.29.9l-.32.23a26.81,26.81,0,0,0-8.31,10.36c-10.94,1.72-19.59,6.86-25.74,15.3-20.46,28-6.18,85.1.68,112.52.7,2.78,1.3,5.18,1.75,7.12.88,3.75.85,8.32-.07,14-.07.43-.14.85-.22,1.27l-.05.26,0,.23c-.11.57-.22,1.16-.35,1.75v.07l0,.2V814c-.1.5-.22,1-.33,1.5l-.12.51,0,.09c-.11.46-.22.92-.34,1.38v.08c0,.18-.08.33-.12.49-.16.66-.33,1.3-.5,2l0,.12v0c-.17.64-.35,1.27-.52,1.9l-.06.19-.12.42c-.14.51-.29,1-.45,1.56v0c-1.3.36-2.57.67-3.78.94L802.34,813l1.77-2.21-6.25-4.26-19-12.91L773.64,790l-4.06,4.91-6.68,8.05-4,4.87,4.43,4.51,16.29,16.54,1.14,1.15a18.58,18.58,0,0,0,8.54,13,79.22,79.22,0,0,0,22.57,9.89l-.21.64-.08.27-.08.27c-.23.71-.46,1.46-.69,2.21-.08.26-.15.49-.23.71v.06l-.08.25c-.21.68-.42,1.36-.62,2l-.07.23-.09.3c-.29,1-.57,1.91-.86,2.89l-.06.2,0,.18c-.25.84-.49,1.68-.73,2.52-.07.24-.14.5-.21.76-.23.79-.45,1.6-.68,2.41,0,.18-.1.39-.16.61-.27,1-.55,2-.82,3l0,.07v.06l0,.08c-.25,1-.5,1.91-.73,2.86l-.08.29-.11.46c-.21.83-.41,1.66-.62,2.5l-.09.4-.07.29c-.52,2.18-1,4.35-1.44,6.44l-.12.55,0,.24c-.18.87-.36,1.75-.53,2.63l-.05.26-.1.5c-.43,2.23-.84,4.51-1.22,6.75l-.07.46,0,.33c-.15.88-.29,1.78-.42,2.69l-.09.55c0,.1,0,.2,0,.3-.16,1.12-.32,2.21-.46,3.31,0,0,0,.08,0,.11h0v0c-.16,1.18-.3,2.37-.44,3.56,0,.27,0,.53-.08.78-.06.53-.12,1.05-.17,1.58a22.78,22.78,0,0,0-11,8c-6.39,8.35-8.32,21.77-5.76,39.93L762.5,961.6l-5.92.93v37.8c-9.47,11.65-7.34,21.7-5.1,26.82,7.91,18.07,38.67,28,86.62,28,5,0,10.24-.11,15.59-.32,24.27-1,43.56-3.81,57.33-8.46s22.29-11.17,25.6-19.47.57-16.28-3.27-22.2a57.55,57.55,0,0,0,19.15-22.25c6.24-12.47,7.32-24.43,3.21-35.54-5.83-15.81-20.89-25.55-29.78-30.1,1.53-9.42,3.48-22.2,3.58-22.85l.4-2.59-1.41-2.21-12.69-20-.06-.27c-.17-.69-.34-1.39-.52-2.08l-.09-.37-.13-.52c-.26-1-.51-2-.76-2.92l-.13-.48-.07-.27-.13-.47c-.15-.56-.3-1.12-.46-1.68-.08-.32-.17-.64-.26-1l0-.13c-.16-.61-.33-1.21-.5-1.81l-.06-.2c-.09-.31-.17-.61-.26-.91-.17-.58-.35-1.19-.52-1.8l-.1-.33-.17-.58c-.23-.78-.45-1.52-.66-2.25l-.07-.23-.06-.19v-.05l-1-3.51c-.33-12-3.11-22.44-7.74-29.07l0-.19c-.12-.59-.23-1.16-.34-1.72-.06-.35-.13-.71-.19-1.07l0-.24A174.09,174.09,0,0,1,898.89,795c-.43-6.48,3.48-18.07,7.62-30.35,7.15-21.19,16-47.33,9.83-68.49a58.41,58.41,0,0,0,2.86-8.63c0-.12.06-.23.08-.35s.12-.49.18-.75l0-.23,0-.14.16-.77v-.07l.07-.35c.05-.27.1-.56.15-.85a2.33,2.33,0,0,0,.06-.35c.06-.36.12-.71.17-1.07,0-.1,0-.2,0-.3v-.08c0-.29.07-.59.1-.88s0-.33.06-.49c0-.32.06-.64.08-1v0c0-.08,0-.16,0-.23,0-.42.06-.84.08-1.26a2.72,2.72,0,0,1,0-.28V678c0-.31,0-.63,0-1v-.43c0-.34,0-.67,0-1,0-.11,0-.21,0-.32v-.07c0-.44,0-.88-.08-1.32a2.11,2.11,0,0,0,0-.25v-.09c0-.36-.07-.72-.12-1.07,0-.16,0-.3-.05-.44,0-.33-.09-.67-.15-1,0-.13,0-.26-.07-.38-.08-.49-.17-.95-.28-1.41v-.09l0-.17c-.09-.39-.19-.79-.3-1.19a3.44,3.44,0,0,1-.11-.38c-.12-.39-.23-.74-.35-1.09l0-.09-.1-.31c-.17-.46-.32-.87-.48-1.27l-.05-.13-.08-.17c-.18-.43-.38-.86-.57-1.27l-.11-.21,0-.06,0-.08,0,0c-.16-.33-.33-.65-.51-1l-.26-.47c-.24-.4-.48-.8-.73-1.18a1.74,1.74,0,0,1-.11-.18c-.28-.41-.58-.84-.92-1.29l-.25-.33h0l0,0c-.25-.32-.5-.64-.77-1l-.34-.4q-.46-.51-.93-1l0,0a11.32,11.32,0,0,0,.29-2.92c-.18-5.67-4.5-10.86-11.58-13.89a19.48,19.48,0,0,0-7.69-1.67Zm26.58,294.46h0c8.87,5.28,17.78,13.75,20.84,23.32,2.18,6.83,1.29,13.55-2.73,20.54a52.55,52.55,0,0,1-16.36,16.77,98.08,98.08,0,0,0-17.69-11.12,100.76,100.76,0,0,1,6.26-22.71,76.42,76.42,0,0,0,9.68-26.8Z" style="fill:#a5f8ff"/><path d="M893.56,644.39a12.58,12.58,0,0,1,4.93,1.1c8.11,3.48,9.27,9.44,4.63,11.79.25.15.51.31.76.48l.31.21c.29.2.57.4.84.61s.25.19.36.28l.78.63.27.23c.33.29.64.59.95.89l.18.19c.24.24.47.49.69.74l.26.3c.2.23.39.46.57.7l.22.27c.24.33.47.65.69,1l.07.11c.19.3.38.6.55.9l.18.31q.21.38.39.75l.16.31c.16.33.31.67.45,1,0,0,0,0,0,0,.14.35.28.71.4,1.07l.11.3c.09.27.17.53.25.8l.09.32q.14.46.24.93s0,.11,0,.16c.08.36.15.73.22,1.09a2.89,2.89,0,0,1,0,.29c0,.27.09.55.13.83,0,.11,0,.22,0,.34,0,.28.07.57.09.86a1.94,1.94,0,0,1,0,.24c0,.36,0,.73.07,1.09v.25c0,.28,0,.56,0,.84V677c0,.26,0,.53,0,.79,0,.1,0,.2,0,.3q0,.52-.06,1a1.5,1.5,0,0,1,0,.22c0,.28,0,.56-.07.84,0,.12,0,.24,0,.36s-.05.48-.09.71,0,.23,0,.34l-.15,1a1.16,1.16,0,0,1,0,.18c0,.27-.09.54-.14.81,0,.12,0,.25-.07.37s-.09.41-.13.61-.05.25-.08.38-.1.44-.16.66c0,.07,0,.15-.05.23h0a48,48,0,0,1-3.57,9.89h0c11.35,31.22-18.3,79.13-16.93,99.74a181.64,181.64,0,0,0,2.55,20.69c.08.45.16.9.25,1.35s.23,1.17.34,1.75c.08.41.16.82.25,1.22l.12.57c4.55,5.59,7.12,16,7.3,27.23.44,1.46.88,2.93,1.31,4.4.05.15.1.31.14.47.22.73.44,1.46.65,2.19.09.32.19.63.28.95.17.59.35,1.19.52,1.79l.3,1.07c.17.59.34,1.18.5,1.77.1.35.2.7.29,1.06.2.7.39,1.4.58,2.1.06.25.13.49.2.73.24.94.49,1.88.73,2.83.08.3.15.59.22.89l.51,2,.27,1.13a1.89,1.89,0,0,0,0,.23l13.32,21s-2.91,19.06-4.44,28c8.28,3.49,46.35,21.91,28.09,58.43a50.16,50.16,0,0,1-23.42,23.4c18.66,19.23,10,42-69.41,45.12q-8,.32-15.31.31c-75.23,0-93.62-24.55-74.52-45.23V968.52l26.77-4.18c-7.36-38.47,5.38-47.17,15.16-47.93a1,1,0,0,1,0-.17c.07-.92.15-1.84.23-2.76,0-.32.06-.65.1-1,.08-.91.18-1.81.28-2.71,0-.25.05-.49.08-.73q.19-1.74.42-3.45s0-.06,0-.09q.21-1.63.45-3.24c0-.1,0-.21,0-.31s0-.33.07-.5c.14-.89.27-1.78.42-2.66l.12-.76q.56-3.34,1.18-6.58l.15-.73c.17-.86.34-1.71.52-2.56l.15-.76q.68-3.18,1.41-6.28c.05-.22.11-.43.16-.65l.6-2.45c.06-.26.13-.51.19-.76.23-.92.46-1.84.7-2.75l.06-.23c.27-1,.53-2,.81-3,0-.2.1-.39.16-.59.21-.79.44-1.58.66-2.37.07-.24.13-.48.2-.72l.72-2.47c0-.13.07-.26.11-.39l.84-2.84c.06-.17.11-.34.16-.51.23-.77.46-1.52.69-2.27.08-.25.15-.5.23-.75l.69-2.21c.05-.16.11-.33.16-.5.28-.9.57-1.79.85-2.68.05-.15.09-.29.14-.45.24-.72.47-1.45.7-2.17l-4.62-3.82a71.13,71.13,0,0,1-22.26-9.36A11.59,11.59,0,0,1,788,824l-2.06-1.71L784.58,824l-16.29-16.54,6.68-8.06,18.95,12.92L792.55,814l22.78,18.68a79,79,0,0,0,11.32-2.8c.32-1.05.63-2.08.93-3.1l.18-.6c.16-.54.31-1.08.47-1.61,0-.21.11-.42.17-.63.19-.66.37-1.31.54-2a.75.75,0,0,0,0-.16c.19-.69.37-1.38.54-2.06.05-.19.09-.38.14-.57.13-.5.25-1,.36-1.49l.15-.63c.13-.55.25-1.09.36-1.63,0-.12.06-.24.08-.37.14-.64.26-1.28.38-1.91,0-.18.07-.36.1-.53l.24-1.39c1-6.15,1.14-11.7,0-16.69-6-25.48-35.33-123.16,21.73-126.89v-.13a19.11,19.11,0,0,1,7.32-11.12,1.92,1.92,0,0,1,.17-.13c.33-.24.67-.48,1-.72l.4-.24c.3-.19.6-.38.92-.55.17-.1.35-.19.53-.28s.6-.32.92-.46.42-.19.63-.28l.95-.4.72-.26,1-.34.8-.23,1.07-.28.87-.19,1.15-.22,1-.14c.4-.06.82-.11,1.24-.15s.67-.08,1-.1.89-.06,1.34-.08l1.08-.05h1.46l1.12,0,1.6.08,1.16.08c.58,0,1.19.12,1.79.19l1.16.13,1,.15c-.83-3.66,2.06-7.55,7.09-7.55M921,1001c8.53-4.12,16.49-11,23.24-21.61,15.57-26.86-9.55-48.91-26.41-56.6a21.13,21.13,0,0,1-.56,2.67,31.83,31.83,0,0,1-3.5,1.79c-1.51,11.37-4.9,20.73-9.58,28.28a106.47,106.47,0,0,0-7.54,30c9.69,4.33,18.21,9.68,24.35,15.42M797.14,963.28l2.48-.39,19.84,13.28v2q7.62-1.35,16-2.17c-14-5.82-25.29-16.93-29.16-32-5.47,3.55-9,11.72-9.15,18.85,0,.16,0,.31,0,.46m96.42-321.89a10.44,10.44,0,0,0-8.27,3.74,9.12,9.12,0,0,0-1.7,3.43l-.84-.08-.92-.06-.31,0h-.18l-1.51-.08-.94,0h-1.8l-1,0h-.14q-.73,0-1.44.09l-1.08.1c-.47.05-.91.1-1.35.17l-1,.16-1.26.23-.95.22c-.41.09-.8.2-1.19.3l-.88.26-1.11.37-.2.07-.61.22c-.37.15-.72.29-1.07.45l-.14.06-.58.26c-.35.16-.69.33-1,.51l-.11.06-.5.26c-.35.2-.69.41-1,.62l-.11.07-.36.22c-.34.22-.71.48-1.15.81l-.21.15a22.8,22.8,0,0,0-7.88,10.84c-10.94,1.19-19.47,5.89-25.37,14-19.36,26.54-5.38,82.37,1.33,109.2.7,2.8,1.3,5.21,1.76,7.18,1,4.27,1,9.35,0,15.52-.08.45-.15.9-.23,1.34l0,.25-.05.27c-.11.6-.23,1.22-.36,1.84l-.07.32v0c-.11.52-.23,1.05-.35,1.58l-.12.51,0,.1c-.11.48-.23,1-.35,1.45,0,.21-.09.39-.14.57v0c-.17.65-.33,1.3-.51,2l0,.05v0l0,.08-.53,1.94-.06.2-.12.41c-.15.53-.3,1.06-.46,1.6l-.08.26-.09.33c-.16.52-.31,1-.47,1.56a72.69,72.69,0,0,1-8.06,2l-19.43-15.93,1.54-1.93-2.68-1.82-19-12.92-2.26-1.53-1.74,2.1-6.68,8-1.73,2.09,1.91,1.93,16.28,16.54,2.12,2.16a14.66,14.66,0,0,0,6.91,11.5A74.12,74.12,0,0,0,814,849.35l2.49,2.06c0,.08,0,.16-.07.24l-.08.23-.07.23c-.28.88-.57,1.78-.85,2.68l-.08.26-.08.25-.69,2.21h0v0l-.21.69-.08.26c-.21.68-.42,1.36-.62,2l-.08.24-.08.28c-.28.94-.57,1.9-.85,2.86l-.06.2-.05.19q-.36,1.23-.72,2.49l-.21.74c-.22.78-.45,1.58-.67,2.38-.05.19-.1.39-.16.6-.27,1-.54,2-.81,3v.06l-.05.16c-.24.93-.48,1.86-.71,2.8l-.07.28-.12.49c-.21.79-.41,1.62-.61,2.45l-.09.4-.07.27c-.51,2.15-1,4.29-1.42,6.35l-.11.53-.05.24c-.18.86-.36,1.72-.53,2.59l0,.27-.09.47c-.43,2.21-.83,4.45-1.2,6.66l-.07.42-.05.35c-.15.88-.29,1.78-.42,2.68,0,.17-.06.34-.08.52s0,.14,0,.22l0,.09c-.16,1.08-.31,2.16-.45,3.25,0,0,0,.07,0,.11-.16,1.18-.3,2.34-.43,3.52,0,.28-.06.52-.09.76-.09.89-.19,1.81-.28,2.74,0,.31-.06.65-.09,1l-.06.57A18.9,18.9,0,0,0,791.21,921c-6.15,8.06-7.62,21.79-4.36,40.85l-23.73,3.71-2.54.39v35.85c-6.8,7.8-8.73,16.2-5.43,23.75,3.39,7.74,12.2,14.14,25.5,18.5,14.4,4.73,33.73,7.12,57.45,7.12,4.95,0,10.14-.1,15.43-.32,23.89-.95,42.8-3.73,56.21-8.25,12.51-4.23,20.31-10,23.17-17.16,2.72-6.81.89-14.3-5.3-21.84a53.3,53.3,0,0,0,21.31-22.92c5.72-11.44,6.75-22.33,3-32.37-6-16.22-22.81-25.64-30.46-29.2,1.57-9.46,4-25.55,4.06-25.73l.17-1.11-.61-.95-13-20.58v-.08c-.07-.27-.13-.54-.2-.82l-.51-2.06-.09-.38-.13-.51c-.25-1-.49-1.92-.74-2.87l-.13-.46-.07-.27-.13-.47c-.15-.56-.3-1.11-.46-1.67-.08-.29-.16-.61-.25-.93l0-.13c-.17-.59-.33-1.19-.5-1.78l-.06-.21c-.08-.3-.17-.59-.25-.88-.17-.59-.35-1.2-.52-1.8l-.1-.33-.17-.59c-.22-.76-.44-1.49-.66-2.23l-.06-.2-.07-.24-1.21-4c-.24-11.92-3-22.07-7.5-28.07-.07-.35-.15-.71-.21-1.06-.12-.59-.24-1.16-.35-1.74-.06-.36-.13-.72-.19-1.08l-.05-.25a178.11,178.11,0,0,1-2.51-20.35c-.48-7.26,3.55-19.23,7.82-31.89,7.13-21.12,16-47.31,9.36-67.46a54.16,54.16,0,0,0,3.24-9.35l.06-.26c.06-.23.11-.47.17-.72l.05-.23,0-.15c0-.23.1-.45.14-.67l0-.09.06-.31.15-.82c0-.1,0-.18,0-.27.06-.33.11-.67.16-1l0-.26v-.1c0-.27.07-.54.1-.81s0-.25,0-.39c0-.3.05-.59.08-.88v-.08s0-.12,0-.18c0-.36,0-.75.06-1.14a1.64,1.64,0,0,1,0-.2v-.09c0-.3,0-.59,0-.88v-.39c0-.3,0-.6,0-.9v-.29c0-.42,0-.81-.07-1.21a1.23,1.23,0,0,1,0-.19v-.1c0-.32-.06-.63-.1-.95,0-.14,0-.27-.05-.4s-.08-.58-.13-.89l-.06-.32q-.11-.63-.24-1.23l0-.15c-.09-.4-.18-.74-.28-1.09,0-.1-.06-.21-.09-.31v-.06c-.09-.3-.19-.6-.29-.9l0-.11-.08-.24c-.14-.39-.28-.78-.44-1.16l0,0,0-.08c-.16-.38-.33-.76-.51-1.13l-.09-.16-.06-.13v0l0,0c-.14-.28-.29-.57-.45-.84a2.82,2.82,0,0,0-.21-.38c-.2-.34-.41-.69-.63-1h0a.86.86,0,0,0-.1-.16c-.21-.32-.47-.68-.76-1.07l-.18-.23-.06-.08c-.22-.28-.44-.55-.67-.82l-.29-.34c-.26-.29-.52-.57-.8-.85l-.05-.06-.14-.14c-.37-.37-.73-.7-1.09-1l-.22-.18-.08-.07-.32-.27a6.87,6.87,0,0,0,1-3.88c-.12-4.07-3.55-7.93-9.16-10.34a15.56,15.56,0,0,0-6.11-1.34Zm23,287.82c2.23-1.09,2.52-1.33,2.87-1.68a3,3,0,0,0,.41-.48c14.47,7.6,22.48,19,25,26.91s1.46,15.89-3.12,23.82c-5.56,8.76-12.34,15.33-20.2,19.56a93.5,93.5,0,0,0-21.61-13.64,103.81,103.81,0,0,1,7-26.86,73.13,73.13,0,0,0,9.65-27.63ZM800.43,959.82a23.21,23.21,0,0,1,4.43-10.45,50.24,50.24,0,0,0,20.58,24.76l-3,.44h0l-1.33-.89L801.29,960.4l-.86-.58Z" style="fill:#fff"/><path d="M847,975.16c62.26-2.68,150,67,6.39,72.7S741.5,979.69,847,975.16Z" style="fill:#3d605f"/><path d="M916.6,920.29s50.06,18.2,29.64,59.05-73.69,30.77-96.12,20.3-37.2,6.05-37.2,6.05l-1.64-1s10-18.32,34-10.06,71.48,28,98.92-15.27c16-27.62-11-50.18-27.84-57.22S916.6,920.29,916.6,920.29Z" style="fill:#9f8e7c"/><polygon points="799.63 962.89 819.46 976.17 819.46 1017.25 782.72 1030.14 763.58 1008.59 763.58 968.52 799.63 962.89" style="fill:#2ac4f8"/><polygon points="819.46 976.17 785.38 983 782.72 1030.14 819.46 1017.25 819.46 976.17" style="fill:#008cc7"/><polygon points="763.58 968.52 785.38 983 819.46 976.17 799.63 962.89 763.58 968.52" style="fill:#2ac4f8"/><path d="M814.83,918.25c-3.63-3-37.38-10.23-23.23,52.08,1.55,6.83,5.38,3.67,5.55-7.51.18-11.52,9.36-25.73,21-18.87C827.46,949.4,814.83,918.25,814.83,918.25Z" style="fill:#55575e"/><path d="M833.7,827.28s-21.89,9.39-32.3,4.56-9.34-12.08-11.48-11-5.34,10.74,3.2,16.38,30.17,15.3,40.58,7S833.7,827.28,833.7,827.28Z" style="fill:#9773cf"/><path d="M867.34,668.44c-75.91-12.14-42.44,98.7-36,126.09s-26.45,71.6-26.44,138c0,62.84,119.9,75.6,109.09-32.49-4.4-44-19.27-62.51-22.05-104.54C890,766.17,950.64,681.76,867.34,668.44Z" style="fill:#7847b0"/><path d="M831.39,810.88c-3.52,22.13-18.48,52-24.24,91.1a207.88,207.88,0,0,0-2.28,30.5c0,62.84,119.9,75.6,109.09-32.49-3.64-36.48-14.47-55.41-19.66-84.72-.38-2.14-15-7.09-20.53,3C862.48,842.16,834.78,833.73,831.39,810.88Z" style="fill:#ffc200"/><path d="M914,900c10.81,108.09-109.08,95.33-109.09,32.49a207.88,207.88,0,0,1,2.28-30.5S856.25,930.94,914,900Z" style="fill:#32343a"/><path d="M830.79,752.31c-1-23.55,54.53-7.22,50,8.39a9.54,9.54,0,0,1-.6,1.64C867.94,787.74,831.84,777.67,830.79,752.31Z" style="fill:#61144b"/><path d="M880.81,760.7a11.27,11.27,0,0,1-.54,1.5c-15.67-11.55-41.62-12.51-49.38-12.52C833.73,730.1,885.14,745.71,880.81,760.7Z" style="fill:#fff"/><path d="M884.44,715.91c18.54,7,8.76,27.39-6.58,23.93S867.85,709.62,884.44,715.91Z" style="fill:#2b1a45"/><path d="M834.43,715.09c15.88-2.79,17.28,19,1.88,20C823.69,736,825,716.74,834.43,715.09Z" style="fill:#2b1a45"/><path d="M881.85,717.35c-14.36-3-14,21,0,21C892.44,738.46,898.69,720.93,881.85,717.35Z" style="fill:#fff"/><path d="M837.11,716.34c-13.1.13-9.32,18.34,0,17.42C845,732.85,849.83,718.57,837.11,716.34Z" style="fill:#fff"/><path d="M836.06,724.18c6,1.12,2.13,9.67-2.27,7.52S831,723.24,836.06,724.18Zm-.87,3.88c1.53.15,3.3-2.53.73-3.07C831.9,724.12,833.65,727.92,835.19,728.06Z" style="fill:#0098b3"/><path d="M879.54,727.92c6,1.11,2.14,9.66-2.27,7.51S874.47,727,879.54,727.92Zm-.87,3.88c1.54.14,3.3-2.53.74-3.08C875.39,727.86,877.13,731.65,878.67,731.8Z" style="fill:#0098b3"/><polygon points="793.92 812.27 784.58 823.95 768.29 807.41 774.97 799.35 793.92 812.27" style="fill:#93742c"/><path d="M907.73,947.93s-13,22.9-11.36,50.93-6.36,36.73-15.2,14.63-7.23-53.52-2.42-69.64S915.21,929.08,907.73,947.93Z" style="fill:#55575e"/><path d="M787.68,810l75.65,62,12.82-5.4,32.31,4,14.13,22.29s-4.9,32.05-5.32,32.48c-.8.81-27.82,12.89-28.88,13.16-.54.13-28-7.79-28-7.79L847.59,904.2l8-24.43-74.49-61.48Z" style="fill:#e9a600"/><path d="M831.73,758.24c12.56-4.15,23.11,1.36,20.9,3.39,16.08-4,21.57,3.55,23.25,7.27C862.44,784.05,837,776.82,831.73,758.24Z" style="fill:#f61dac"/><path d="M774.17,981.79c-10.59-7.12-11.48,22.68-1.74,31.54S784.75,988.9,774.17,981.79Z" style="fill:#008cc7"/><path d="M773.72,990.33c-4.93-3.31-5.34,10.55-.81,14.67S778.64,993.64,773.72,990.33Z" style="fill:#2ac4f8"/><polygon points="895.12 921.03 886.06 908.95 895.76 896.33 906.2 909.63 895.12 921.03" style="fill:#f2c35c"/><polygon points="884.96 882.59 894.62 894.88 884.84 907.32 875.09 894.32 884.96 882.59" style="fill:#f2c35c"/><polygon points="874.84 923.54 880.53 932.03 870.53 929.13 874.84 923.54" style="fill:#f2c35c"/><polygon points="874.1 895.49 883.84 908.58 874.68 920.23 865.28 905.96 874.1 895.49" style="fill:#f2c35c"/><polygon points="893.98 922.2 883.57 932.91 882.92 932.73 875.92 922.12 885.07 910.23 893.98 922.2" style="fill:#f2c35c"/><polygon points="856.52 912.68 852.33 903.93 855.37 894.5 862.69 905.42 856.52 912.68" style="fill:#f2c35c"/><polygon points="872.72 893.63 863.95 903.94 856.15 892.09 859.42 881.93 862.29 879.62 872.72 893.63" style="fill:#f2c35c"/><polygon points="884.47 879.81 877.37 870.87 890.74 872.43 884.47 879.81" style="fill:#f2c35c"/><polygon points="894.68 923.14 899.17 929.18 888.39 934.31 884.8 933.27 894.68 923.14" style="fill:#f2c35c"/><polygon points="864.04 907.44 873.57 921.65 868.21 928.46 863.4 927.06 857.65 915.04 864.04 907.44" style="fill:#f2c35c"/><polygon points="883.6 880.84 873.7 892.48 863.39 878.73 866.51 876.22 876.03 871.21 883.6 880.84" style="fill:#f2c35c"/><polygon points="895.82 921.96 906.94 910.57 914.06 919.63 913.62 922.31 900.7 928.46 895.82 921.96" style="fill:#f2c35c"/><polygon points="895.52 893.73 885.85 881.54 893.26 872.73 905.67 874.18 908 877.86 895.52 893.73" style="fill:#f2c35c"/><polygon points="907.27 908.53 896.66 895.16 908.89 879.26 918.22 893.93 917.58 897.92 907.27 908.53" style="fill:#f2c35c"/><polygon points="908.02 909.46 917.24 900.01 914.4 917.5 908.02 909.46" style="fill:#f2c35c"/><path d="M885.37,817c19.78-4.27,24.69,52.83,4,71.79s-7.22-9.1-4.69-14.76C897.59,845.14,859.58,822.53,885.37,817Z" style="fill:#9773cf"/><path d="M853,667.51s3.6-22.42,38.85-14.57,17,42.77,17,42.77-6,6.76-31.32-3.74S853,667.51,853,667.51Z" style="fill:#e8b15b"/><path d="M858.25,658.22c5-5,14.84-9.46,33.64-5.28,23.1,5.15,23.2,21.93,20.52,32.88C902.87,684.81,865.77,679.56,858.25,658.22Z" style="fill:#de9000"/><path d="M898.49,645.49c11.57,5,9,15-4.4,12.33S886.28,640.26,898.49,645.49Z" style="fill:#e8b15b"/></svg>