<svg id="Ebene_1" data-name="Ebene 1" xmlns="http://www.w3.org/2000/svg" viewBox="0 0 1795 1415"><rect x="378.94" y="562.54" width="1138.21" height="766.28" style="fill:none"/><path d="M1174.46,1101.49c-30-1.34-48.19,15.13,1,15.89S1208.26,1103,1174.46,1101.49Z" style="fill:#a5f8ff"/><path d="M1173.23,1106.73c14.82,3.72,16.48-22.81,7.8-32.88s-36.76-34.86-48.74-41.89-2.89-21.11-.41-31.21,28.82-83.2,6.35-112.94-77.6-47.41-122.84,14.47c-35.52,48.6-12,94.43-1.24,117.84,3.33,7.26-50.8,36.63-38.41,61.41s32,2.07,34.61,0-11.07,39.25-6.52,84.68,11.15,34.7,13.22,68.57,33.45,34.13,38.82,11.49c2.07-9.84,39.34-3.23,55.61-5.71s18.74,20.24,33.2,18.59,21.48-15.29,24.37-42.55c0,0-.21-18.94-2.83-43.28l11.15-17.08-12.23-27.31-6.94-3.25s-2.74-10.35-4.36-15.23C1147.57,1090.62,1158.41,1103,1173.23,1106.73Zm-9.25,25,9.71,24.56-8.15,11c-1.25-10.4-3-21.55-5.25-32.46-.31-1.48-1-4.42-1-4.42Z" style="fill:#a5f8ff"/><path d="M1013.8,1108.41l-1.26,27,2.09,32.27,2.21,16s5.53,11.24,5.71,11.77,1.25,19.46,1.43,20.17,2,12.85,2,12.85l6.43,19.55,3.4,1.87,9.45-3.67,5.36-18.29,32.84,5.72,35.33-6.43,9.64-4.1,8.57,20,8.92,7.68,5.56-1.25,8.18-25-2.85-31.89-1.68-40.56-12.69-44.78-12.68-29.64,26.87,16.59,12,4,7.14-2.85-.71-7.78-16.24-24.81-34.09-28.55-5-5.89,10.2-55.33,8.42-39.79-9.14-35.88L1119.61,883l-18.89-13.92s-15,.89-17.13,1.25-25,3.54-25,3.54-4.1,4.49-4.1,5.2-18,14.28-18,14.28L1022.1,907.1s-12.53,20-11.75,20.52-3.33,23.83-3.33,23.83,1.07,18.45,1.25,19.26,3,17.81,3,17.81,7.13,17.33,7.31,17.3,6.31,15.68,6,16.21-2.26,5.69-2.53,6.15-21.32,15.81-21.32,15.81S987,1058.26,987,1058.8s-4.81,13.56-4.81,13.56.71,5.18,1.07,6.07,8.38.18,8.38.18l13.39-5.18,14.3-5Z" style="fill:#fff"/><path d="M1025.93,1194.5s.55,37.8,9.22,49.57,13.08-27.26,13.08-34.08S1025.93,1194.5,1025.93,1194.5Z" style="fill:#2de6fa"/><path d="M1035.5,1024.23s-37.6,18.91-49.57,45.59c-7.5,16.74,44.62-18,44.62-18Z" style="fill:#2de6fa"/><path d="M1010.35,957.88c1.09-75,91.31-107.61,113.05-65.22s-3.24,96.54-8.7,129.36c-7,42,39.68,82.64,39.13,176.09-.12,20.78-101.26,57.73-125.42,5-15.4-33.62-18.72-90.54,3.68-181.09C1010.35,991.58,1010.35,957.88,1010.35,957.88Z" style="fill:#0ebbcb"/><path d="M1153.42,1192.86s5.58,35.87-3.72,52c-7.59,13.13-17.35-16.45-19.83-35.66S1153.42,1192.86,1153.42,1192.86Z" style="fill:#2de6fa"/><path d="M1105.23,1025.55s59,41.18,67.32,64.09-63.13-28.3-67.43-36.59S1105.23,1025.55,1105.23,1025.55Z" style="fill:#2de6fa"/><path d="M1024.66,978.58c2.51-9.61,15.52,8,40,8.36s45.54-16.25,48-11.22-6.75,46.37-48.64,37.86S1024.66,978.58,1024.66,978.58Z" style="fill:#fff"/><path d="M1111.48,986.77c-38.88,20.81-74.78,6.5-85.08,1.51,3.23,8.46,12.32,20.16,37.63,25.3C1094.05,1019.68,1107.3,1000.17,1111.48,986.77Z" style="fill:#dd2f5c"/><path d="M1033.38,939c-17.72-1.37-18.52,21.42-3.09,28S1057.58,940.9,1033.38,939Z" style="fill:#0e6364"/><path d="M1033.36,941.05c-14.23-1.1-14.87,17.2-2.48,22.47S1052.8,942.55,1033.36,941.05Z" style="fill:#fff"/><path d="M1031.35,945.91c-6.35,1.24-6.35,11.31.93,11.15S1037.7,944.67,1031.35,945.91Z" style="fill:#0e6364"/><path d="M1031.19,947.31c-5.15,2.1-2.74,5.33.65,4.14S1033.34,946.43,1031.19,947.31Z" style="fill:#fff"/><path d="M1105.21,938.49c-17.38-1.34-18.16,21-3,27.45S1129,940.32,1105.21,938.49Z" style="fill:#0e6364"/><path d="M1105.2,940.22c-14.23-1.09-14.87,17.21-2.48,22.47S1124.63,941.72,1105.2,940.22Z" style="fill:#fff"/><path d="M1103.18,945.09c-6.35,1.23-6.35,11.31.93,11.15S1109.53,943.85,1103.18,945.09Z" style="fill:#0e6364"/><path d="M1103,946.48c-5.15,2.1-2.74,5.34.64,4.14S1105.17,945.6,1103,946.48Z" style="fill:#fff"/><path d="M1089.09,1280.37c-58.49-2.62-94,29.52,2,31S1155,1283.32,1089.09,1280.37Z" style="fill:#a5f8ff"/><path d="M606.28,867.2c44-5.19,73.89,19.27,68.17,52.83s-23.2,64.61-16.06,70.32,30.7-3.22,35-20.35,6.78-42,18.56-41.69,22.13,19.37,23.92,32-13.57,34.72-23.92,46.14-29.27,16.78-37.48,14.63-5.36,2.73,3.39,12.43,25.53,42.9,23.74,60.39-6.42,18.66-1.07,23.61,26.06,13.62,26.06,23.92-22.85,17.83-42.48,12.28-53.54,5.51-60,7.29-10,24.27-17.85,25.34-21.56-13.64-24.23-39.8c-1.37-13.38-7.24-4.72-10.66-36.85-2.67-25.16-.71-87.45-4-89.94s-34.62-11.51-43.9-49.35c0,0-11.06-69.36,15-63.59s18.92,11.43,20.35,6.81S561,872.56,606.28,867.2Z" style="fill:#a5f8ff"/><path d="M603.33,1178.62c-1.75,0-3.46-1.22-5.37-3.84-7.2-9.86-8.85-23.63-8.94-33.63-11.07-16.44-11-49-10.92-80.51,0-16.69.08-33.93-1.59-48.08-38.65-3.78-51.19-47-50.14-75.47.38-10.6,3-21.92,9-21.92a4.76,4.76,0,0,1,.83.08c20,3.59,19,15,17.64,30.9-.73,8.42-1.55,18,.28,28.91,3.21,19.29,13.39,24.65,20.43,26a57.73,57.73,0,0,0-3.12-9.93,129.93,129.93,0,0,1-10.25-45.47c-.59-16.44,2.31-31.25,8.4-42.81,7.35-14,19.33-22.94,34.64-26a77.77,77.77,0,0,1,15-1.58c13.78,0,24.78,4.4,32.69,13.06,8.53,9.35,12.85,23.54,11.54,37.95-1,11.06-4.11,21.66-7.1,31.91-3.52,12-6.83,23.37-6.83,35a23.93,23.93,0,0,0,.31,3.69,57.06,57.06,0,0,0,9,.69c14,0,38.19-5,42.19-38.76,1.92-16.17,5.85-24.37,11.69-24.37,2.88,0,5.87,2.12,8.65,6.13,5,7.26,8.8,20.22,6.35,26.71l0,.1a110.16,110.16,0,0,1-15.17,23.2c-13,15.29-27.94,23.38-43.12,23.38h0a47.67,47.67,0,0,1-14.54-2.35c4.78,10.12,11.93,20.95,18.32,30.61,6.56,9.93,11.74,17.78,12.8,22.45.22,1,.7,2.49,1.3,4.39,3.12,9.82,9.54,30.07,2.88,48.21,5.73,5.6,11.65,11.09,16.42,13.19,8.76,3.86,13.3,8.37,12.46,12.39-.42,2-2.53,5.29-12,5.29a52,52,0,0,1-5.36-.31c-11.88-1.28-21.08-4.72-27.36-10.26-13.79,9.8-35.25,14.79-63.81,14.84C609.81,1169.41,608.37,1178.62,603.33,1178.62Z" style="fill:#2de6fa"/><path d="M619.3,876.89c34.27,0,44.52,28.4,42.63,49.26-2.15,23.58-13.94,45-13.94,67a27.75,27.75,0,0,0,.53,5.07h0a53.89,53.89,0,0,0,10.36.92c14.53,0,39.64-5.19,43.78-40.18,2-17,6-23,10.1-23,8,0,16.67,22.26,13.49,30.67,0,0-20.88,45.64-56.83,45.64a47,47,0,0,1-17.54-3.53c9,21.22,30.44,46.9,32.55,56.21,1.47,6.43,12.32,31.32,3.87,52.65,6.11,6,12.45,12,17.65,14.25,15.34,6.76,15.21,14.6,1.1,14.6a49.61,49.61,0,0,1-5.18-.3c-11.53-1.23-21.07-4.6-27.42-10.73-12.12,9.1-32.14,15.31-64.39,15.31-.37,0-.72,0-1.08,0-.47,12-1.39,26.27-5.66,26.27-1.12,0-2.46-1-4.07-3.18-7.16-9.8-8.6-23.76-8.63-33.18-17.2-24.68-7.51-88.89-12.69-129.58-56.7-4.16-55.85-94.29-42.54-94.29a2.47,2.47,0,0,1,.54.05c28.4,5.11,11.26,26.32,16.62,58.49,3.75,22.46,16.63,27,24.07,27.63a62.84,62.84,0,0,0-3.7-12.47c-18.22-42.35-14.47-102.93,31.64-112.05a76.49,76.49,0,0,1,14.73-1.54m0-3.21v0a80.06,80.06,0,0,0-15.36,1.6c-15.8,3.13-28.17,12.4-35.76,26.81C562,913.9,559,929,559.61,945.7a131.37,131.37,0,0,0,10.37,46,50.44,50.44,0,0,1,2.41,7.11c-6.84-2.12-14-8.3-16.66-24.07-1.79-10.75-1-20.18-.26-28.5,1.33-15.44,2.47-28.77-19-32.62a6,6,0,0,0-1.11-.1c-2.94,0-9.86,2.28-10.64,23.45-1.06,28.77,11.56,72.3,50.3,77,1.51,13.81,1.47,30.47,1.43,46.61-.07,31.49-.15,64,10.93,81,.14,10.2,1.91,24,9.24,34.09,1.41,1.93,3.64,4.49,6.67,4.49,6.17,0,7.92-8.83,8.74-26.24,27.44-.22,48.33-5.07,62.18-14.42,6.48,5.29,15.65,8.59,27.28,9.84a52.37,52.37,0,0,0,5.53.31c10.61,0,13.06-4.11,13.58-6.56,1-4.9-3.72-9.93-13.38-14.19-4.32-1.9-10-7.09-15.22-12.16,6.27-18.38-.08-38.43-3.2-48.25-.56-1.8-1.05-3.35-1.26-4.26-1.13-5-6.38-12.92-13-23-5.68-8.6-12-18.12-16.62-27.2a48,48,0,0,0,11.5,1.43c15.67,0,31-8.29,44.34-23.95A112.78,112.78,0,0,0,729.18,968l.05-.1,0-.1c2.69-7.14-1.28-20.59-6.53-28.19-3.09-4.46-6.53-6.83-10-6.83-6.89,0-11.24,8.44-13.3,25.79-1.7,14.39-7.28,24.79-16.57,30.91-8.08,5.32-17.52,6.44-24,6.44a57.41,57.41,0,0,1-7.55-.5,20.77,20.77,0,0,1-.14-2.28c0-11.36,3.29-22.6,6.77-34.51,3-10.32,6.14-21,7.16-32.21,1.35-14.86-3.12-29.51-12-39.18-8.11-8.89-19.82-13.58-33.87-13.58Z" style="fill:#fff"/><path d="M591.16,1130.4s-3.65,27.35,8.1,43.43,8.82-33.76,10.81-39.13S591.16,1130.4,591.16,1130.4Z" style="fill:#2de6fa"/><path d="M582.05,1011.24c-61.66,0-60.25-97-46.11-94.41,28.4,5.11,11.26,26.32,16.62,58.49s29.49,27.5,29.49,27.5Z" style="fill:#2de6fa"/><path d="M572.93,990.48c18.23,42.35-12.11,160.3,37.14,160.3,111.37,0,77.06-74,74.37-85.78S648,1015.14,648,993.16s11.79-43.43,13.94-67-11.26-56.83-57.36-47.72S554.71,948.13,572.93,990.48Z" style="fill:#0ebbcb"/><path d="M648.53,998.23s48.25,10.48,54.14-39.26,28.42-5.07,23.59,7.71c0,0-29.1,63.62-77.73,40.66C631.85,999.47,648.53,998.23,648.53,998.23Z" style="fill:#2de6fa"/><path d="M572.67,948.67c5.29-4.92,5.6,10.56,31.18,6.24s27.45-30.84,41.16-12.3-12.5,50.41-40.16,39.67S567.64,953.35,572.67,948.67Z" style="fill:#dd2f5c"/><path d="M628.32,922.42c12.15-3.14,19.21,2.28,20.37,6s-11.88-4.87-19.48.94-11,11.84-12.33,7.73S620.72,924.39,628.32,922.42Z" style="fill:#0e6364"/><path d="M585,926.29c7.46-4.42,15.59,2.59,14.07,5.63s-8.76-3.85-12.55-2-6.08,8.8-7.29,8.58S578.65,930,585,926.29Z" style="fill:#0e6364"/><path d="M666.45,1119.64c2.69,16.66,16.35,24.52,35.43,26.56s21.11-6.8,4.08-14.3S659.64,1077.4,666.45,1119.64Z" style="fill:#2de6fa"/><path d="M603.85,954.91c-25.58,4.32-25.89-11.16-31.18-6.24-1.31,1.22-1.62,3.36-.89,6.05,2.85,2.34,21.2,16.44,41.37,8,14.33-6,25.12-15.49,30.89-21.39C631.2,925.35,628.81,950.69,603.85,954.91Z" style="fill:#fff"/><path d="M647.08,1191c-41.57-1.86-66.79,21,1.39,22S693.93,1193.08,647.08,1191Z" style="fill:#a5f8ff"/><path d="M1168.27,1149.42c3.36,2.6,1.47,4.78,0,3.75S1166.44,1148,1168.27,1149.42Z" style="fill:#a5f8ff"/><path d="M1168.05,1147.51c1.11,1.32,1.37-.15.54-1S1167,1146.18,1168.05,1147.51Z" style="fill:#a5f8ff"/><path d="M1178.12,1153.43c2.43,3.34,5.81.66,3.9-2.15S1175.7,1150.08,1178.12,1153.43Z" style="fill:#a5f8ff"/><path d="M1179.23,1158.24c1.32,2.83,3-.59,1.91-1.62S1178.12,1155.88,1179.23,1158.24Z" style="fill:#a5f8ff"/></svg>