<svg width="197" height="156" viewBox="0 0 197 156" fill="none" xmlns="http://www.w3.org/2000/svg">
<path d="M55.3953 10.1682C9.30611 34.3918 8.25656 142.111 119.397 111.009C231.083 79.7463 134.286 -31.338 55.3953 10.1682Z" fill="#FFBD48"/>
<path d="M155.851 55.9916C153.052 31.796 116.451 3.10827 79.5067 13.4218C42.5625 23.7354 32.3049 49.2885 35.7335 66.0323C39.162 82.7761 155.851 55.9916 155.851 55.9916Z" fill="#FFA017"/>
<path d="M72.1878 19.7051C115.233 -1.09 201.926 58.0626 125.631 89.0173C49.6994 119.804 -3.70164 56.4183 72.1878 19.7051Z" fill="#CE2B15"/>
<path d="M82.5504 19.4252C101.442 15.5278 112.672 36.8407 90.0441 42.9631C67.4159 49.0854 64.3372 23.2175 82.5504 19.4252Z" fill="white"/>
<path d="M62.931 49.6523C45.9772 55.187 40.4986 81.3627 67.8289 78.6689C95.1591 75.9751 81.424 43.6909 62.931 49.6523Z" fill="white"/>
<path d="M117.325 35.7073C100.777 41.207 97.3489 62.5338 122.391 57.7619C147.433 52.9899 137.295 29.0532 117.325 35.7073Z" fill="white"/>
<path d="M100.176 65.2555C130.221 56.6072 127.219 88.8774 107.173 91.6902C87.1263 94.503 76.127 72.1965 100.176 65.2555Z" fill="white"/>
<path d="M85.3983 19.7609C74.5319 22.1469 72.7057 26.576 73.8042 31.299C74.9028 36.0219 79.4788 41.9904 93.011 38.156C106.543 34.3217 86.2169 37.4983 83.8659 29.0599C81.5149 20.6215 88.8688 18.9772 85.3983 19.7609Z" fill="#FCCAAE"/>
<path d="M63.9945 54.4245C53.1631 56.8174 51.3509 61.1836 52.4494 65.9065C53.5479 70.6295 58.131 76.521 71.6142 72.7286C85.0974 68.9362 64.8411 72.0779 62.5181 63.7025C60.1951 55.3271 67.451 53.6828 63.9945 54.4245Z" fill="#FCCAAE"/>
<path d="M101.526 67.0748C90.6947 69.4608 88.8755 73.8549 89.96 78.5499C91.0446 83.2449 95.6066 89.1014 109.076 85.344C122.545 81.5866 102.317 84.6863 99.9797 76.3319C97.6428 67.9774 104.983 66.3192 101.526 67.0748Z" fill="#FCCAAE"/>
<path d="M119.452 36.7708C108.586 39.1568 106.746 43.5439 107.823 48.2879C108.901 53.0318 113.47 58.9093 126.981 55.1029C140.492 51.2966 120.201 54.4732 117.885 46.0628C115.569 37.6524 122.909 35.9941 119.452 36.7708Z" fill="#FCCAAE"/>
<path d="M110.923 106.188C63.0147 120 29.0583 91.4945 26.2595 69.9647C29.0093 101.339 55.7799 128.83 119.425 111.009C158.608 100.038 172.189 79.3477 169.838 58.8115C168.446 73.5892 158.986 92.3132 110.923 106.188Z" fill="#FFA017"/>
<path d="M142.263 112.395C142.032 47.7144 102.275 51.3878 102.275 51.3878C102.275 51.3878 138.771 113.759 139.002 116.299C139.233 118.839 126.303 150.255 139.233 154.181C152.164 158.106 142.263 141.033 142.263 112.395ZM139.954 150.388C133.852 147.247 133.258 133.756 138.799 132.371C143.557 131.189 146.062 153.544 139.954 150.388Z" fill="#7C7C7C"/>
<path d="M173.217 131.335C170.678 124.401 142.375 117.691 142.375 117.691L130.025 109.155L121.706 112.157C121.706 112.157 136.028 117.243 139.261 119.468C142.494 121.693 153.122 138.955 160.252 142.188C167.382 145.42 175.743 138.262 173.217 131.335ZM167.347 137.57C161.574 145.882 146.601 125.906 150.372 123.478C153.584 121.4 173.106 129.25 167.347 137.57Z" fill="#606060"/>
<path d="M140.45 117.502C141.479 116.523 142.766 120.112 140.912 119.601C139.058 119.091 139.59 118.328 140.45 117.502Z" fill="#969696"/>
<path d="M139.03 114.472C139.03 114.472 139.03 73.9808 102.989 51.3735C134.3 105.579 139.03 114.472 139.03 114.472Z" fill="#969696"/>
<g style="mix-blend-mode:color">
<g style="mix-blend-mode:color">
<path d="M173.218 131.336C170.678 124.402 142.389 117.692 142.375 117.692C142.305 115.97 142.263 114.193 142.263 112.395C142.263 108.834 142.116 105.496 141.879 102.34C144.656 100.888 147.343 99.2685 149.925 97.4914H149.967C153.446 95.1136 156.647 92.3536 159.511 89.2629L159.665 89.095C160.05 88.6682 160.428 88.2413 160.784 87.8075C160.861 87.7236 160.938 87.6326 161.008 87.5416C161.358 87.1218 161.708 86.695 162.03 86.2752L162.226 86.0093C162.562 85.5685 162.884 85.1277 163.198 84.6869L163.24 84.6239C164.203 83.24 165.079 81.7982 165.864 80.3067L166.032 79.9849C166.228 79.607 166.403 79.2292 166.585 78.8514C166.676 78.6554 166.767 78.4665 166.851 78.2706C167.012 77.9208 167.159 77.5709 167.306 77.2141L167.579 76.5144C167.711 76.1785 167.837 75.8147 167.956 75.4998C168.075 75.1849 168.131 75.01 168.208 74.7581C168.285 74.5062 168.425 74.1144 168.523 73.7855C168.621 73.4567 168.677 73.2398 168.754 72.9669C168.831 72.694 168.929 72.3581 169.006 72.0503C169.111 71.6235 169.202 71.1897 169.293 70.7558C169.384 70.322 169.433 70.0561 169.496 69.6993C169.559 69.3424 169.629 68.9996 169.678 68.6008C169.72 68.3419 169.748 68.083 169.776 67.8311C169.804 67.5792 169.86 67.1314 169.895 66.7955L169.958 66.0189C169.958 65.669 170.007 65.3192 170.021 64.9763C170.035 64.6335 170.021 64.4725 170.021 64.2206C170.021 63.8568 170.021 63.5209 170.021 63.1291C170.021 62.8912 170.021 62.6533 170.021 62.4294C170.021 62.0306 170.021 61.6318 169.972 61.2259C169.972 61.03 169.972 60.8271 169.972 60.6242C169.93 60.0294 169.881 59.4277 169.811 58.826C169.811 58.9169 169.811 59.0079 169.811 59.0988C168.999 51.3392 165.927 43.6075 161.106 36.4216V36.3866C160.001 34.7493 158.811 33.133 157.531 31.5587L157.475 31.4887C156.169 29.912 154.795 28.382 153.354 26.8987L153.277 26.8147C152.822 26.3459 152.36 25.8771 151.877 25.4153L151.793 25.3313C150.8 24.3564 149.776 23.4048 148.722 22.4766L148.645 22.4066C148.155 21.9798 147.665 21.5599 147.161 21.1401L146.979 20.9862C145.902 20.0906 144.794 19.216 143.656 18.3623L143.607 18.3273C143.082 17.9285 142.543 17.5367 142.005 17.1518L141.725 16.9559L140.157 15.8714L140.01 15.7734C138.842 14.9898 137.645 14.2271 136.428 13.4994L136.092 13.2965C135.581 12.9956 135.071 12.6948 134.553 12.4009L134.252 12.205C133.02 11.5099 131.77 10.8452 130.501 10.2108L130.124 10.0219L128.577 9.27322L128.136 9.06331L126.331 8.25166L126.219 8.20268C125.562 7.91813 124.897 7.63825 124.225 7.36304L123.854 7.20911L122.252 6.60736L121.72 6.40445C121.181 6.20154 120.636 6.01262 120.097 5.8167L119.705 5.68376C119.005 5.44586 118.348 5.22196 117.669 4.98406L117.361 4.8861L115.64 4.36832L115.045 4.2004L113.471 3.80856L112.925 3.66862C112.225 3.4867 111.526 3.31877 110.826 3.15784H110.749C110.049 3.01091 109.413 2.86397 108.748 2.73103L108.132 2.60508L106.586 2.3182L105.942 2.20625C105.326 2.1013 104.711 2.00334 104.088 1.91238L103.822 1.8704C103.122 1.77244 102.423 1.68148 101.688 1.59751L101.093 1.53454L99.5118 1.37361L98.8121 1.31763C98.2593 1.26865 97.7065 1.23367 97.1538 1.19868H96.636C95.9363 1.1567 95.2366 1.12871 94.4809 1.10772H93.9561C93.4034 1.10772 92.8436 1.10772 92.2839 1.10772H91.5842C91.0804 1.00977 90.5416 1.00977 90.0098 1.00977H89.3661C88.6664 1.00977 87.9177 1.06574 87.183 1.11472H86.8612C86.2315 1.1567 85.6087 1.20568 84.979 1.26166L84.2793 1.33163C83.7545 1.3876 83.2297 1.44358 82.705 1.51355L81.9843 1.70947C81.2846 1.80043 80.6549 1.89139 79.9901 1.99634L79.7662 2.03133C79.0665 2.15028 78.3039 2.27622 77.5692 2.41616L76.8695 2.54911L75.2742 2.88496L74.5745 3.05289L72.8252 3.47271L72.3424 3.59865C71.6427 3.78757 70.873 3.99748 70.1384 4.20739L69.5646 4.38232L67.8993 4.90709L67.1996 5.15199L65.5623 5.71875L64.9396 5.90766C64.2399 6.17355 63.4702 6.46043 62.7425 6.7543L62.3437 6.92223C61.742 7.16712 61.1332 7.42601 60.5315 7.6919L59.8318 8.00676C59.307 8.24466 58.7752 8.48956 58.2505 8.74145L57.5508 9.06331C56.8511 9.42016 56.0884 9.76301 55.3677 10.1688C54.8009 10.4627 54.2412 10.7776 53.6884 11.0994L53.4295 11.2534C52.9211 11.5612 52.4103 11.8784 51.8972 12.205L51.6033 12.4009C51.0855 12.7367 50.5818 13.1006 50.078 13.4434L49.8821 13.5904C49.3853 13.9542 48.9025 14.2901 48.4197 14.7029L48.3007 14.7939C47.8039 15.1857 47.3212 15.5915 46.8454 16.0043L46.5865 16.2212C46.1247 16.6271 45.6699 17.0399 45.1871 17.4667L44.9422 17.6976C44.4804 18.1314 44.0256 18.5792 43.5778 19.034C43.5512 19.07 43.5207 19.1028 43.4868 19.132C43.053 19.5868 42.6192 20.0486 42.1994 20.5314L42.0384 20.7063C41.6186 21.1751 41.1988 21.6579 40.793 22.1477L40.576 22.4136C40.1702 22.9034 39.7714 23.4002 39.3866 23.9039L39.2186 24.1208C38.407 25.1937 37.6303 26.2923 36.8886 27.4164L36.7417 27.6333C36.3848 28.1791 36.042 28.7319 35.6991 29.2916L35.5382 29.5575C35.1954 30.1243 34.8385 30.698 34.5376 31.2858C34.5376 31.3278 34.4887 31.3767 34.4607 31.4257C34.1248 32.0275 33.803 32.6292 33.4811 33.2449V33.3009C33.1662 33.9096 32.8584 34.5324 32.5645 35.1551L32.4595 35.386C32.1657 35.9948 31.8928 36.6175 31.6199 37.2402C31.6199 37.3102 31.5639 37.3732 31.5289 37.4431C30.9692 38.7586 30.4467 40.0927 29.9616 41.4454V41.5294C29.7237 42.2291 29.4998 42.8658 29.2619 43.5375C29.2619 43.6005 29.2619 43.6635 29.2059 43.7334C29.003 44.3912 28.8071 45.0909 28.6042 45.7906C28.6082 45.8231 28.6082 45.856 28.6042 45.8885C28.2124 47.2879 27.8555 48.7223 27.5476 50.1567C27.5443 50.1869 27.5443 50.2174 27.5476 50.2476C27.3937 50.9567 27.2538 51.6564 27.1278 52.3467C27.1311 52.391 27.1311 52.4354 27.1278 52.4797C26.708 54.6627 26.3861 56.8668 26.2112 59.0848C26.2078 59.1127 26.2078 59.1409 26.2112 59.1688C26.1552 59.8685 26.1063 60.6312 26.0783 61.3589C26.0749 61.3797 26.0749 61.401 26.0783 61.4218C25.9791 63.6369 25.9954 65.8556 26.1272 68.069C26.1238 68.0969 26.1238 68.1251 26.1272 68.153C26.1692 68.8527 26.2252 69.6153 26.2952 70.336C26.2952 70.2171 26.2952 70.0981 26.2392 69.9792C26.2812 70.455 26.3302 70.9238 26.3861 71.3786C26.3861 71.5395 26.4211 71.6934 26.4421 71.8544C26.4421 72.1692 26.5121 72.4771 26.5611 72.792C26.5611 72.9809 26.61 73.1628 26.638 73.3517L26.764 74.1984L26.8689 74.7931C26.9109 75.059 26.9599 75.3249 27.0089 75.5908C27.0578 75.8566 27.0858 76.0106 27.1278 76.2135C27.1698 76.4164 27.2328 76.7243 27.2818 76.9832C27.3307 77.2421 27.3727 77.403 27.4217 77.6199L27.5896 78.3616C27.6456 78.5715 27.6946 78.7884 27.7506 79.0053C27.8065 79.2222 27.8695 79.4881 27.9395 79.705C28.0094 79.9219 28.0514 80.1388 28.1144 80.3557C28.1774 80.5726 28.2473 80.8245 28.3173 81.0554L28.5062 81.7061C28.5832 81.937 28.6532 82.1679 28.7301 82.4058L28.94 83.0566L29.1709 83.7563C29.2549 83.9802 29.3249 84.1971 29.4088 84.414C29.4928 84.6309 29.5698 84.8478 29.6537 85.0647C29.7377 85.2816 29.8217 85.5125 29.9126 85.7644L30.1645 86.3871C30.2625 86.611 30.3534 86.8419 30.4514 87.0868C30.5494 87.3317 30.6123 87.4577 30.6963 87.6396C31.1254 88.5958 31.5919 89.5288 32.0957 90.4384L32.2636 90.7742L32.7044 91.5719C32.7884 91.7118 32.8654 91.8518 32.9423 91.9917L33.3971 92.7544C33.4881 92.9013 33.5721 93.0483 33.656 93.1952L34.1318 93.9369C34.2228 94.0838 34.3137 94.2308 34.4117 94.3707L34.9085 95.0704L35.1954 95.4902L35.7201 96.1899L36.014 96.5818L36.5738 97.3164L36.8676 97.6873L37.4624 98.387L37.7563 98.7298C37.9662 98.9747 38.1761 99.2266 38.393 99.4715L38.6659 99.7654C38.8968 100.024 39.1277 100.276 39.3656 100.528L39.5965 100.766L40.3731 101.557L40.5271 101.704C42.8677 104.002 45.448 106.043 48.2238 107.791H48.2657C48.6576 108.036 49.0494 108.274 49.4552 108.491L49.5672 108.561C49.959 108.792 50.3579 109.008 50.7567 109.26L50.9036 109.344C51.3024 109.554 51.7083 109.771 52.1141 109.974L52.275 110.058C52.6879 110.268 53.1007 110.471 53.5275 110.667L53.6744 110.737C54.1082 110.94 54.5421 111.136 54.9829 111.324L55.0948 111.373C55.5566 111.576 56.0184 111.765 56.4942 111.954H56.5362C68.9629 116.901 85.5457 118.251 106.88 113.913C107.579 113.773 108.279 113.619 109.035 113.466L109.573 113.347L111.449 112.927L112.344 112.71H112.386C112.918 112.584 113.457 112.458 114.003 112.318L115.297 111.989H115.339L116.633 111.653L119.348 110.954C120.433 110.653 121.482 110.338 122.525 110.023L123.511 109.722L125.66 109.022H125.695H125.737L126.765 108.764C127.654 108.456 128.535 108.148 129.396 107.833L130.76 107.322L132.027 106.832L133.629 106.189L133.762 106.14C136.008 110.184 137.708 113.347 138.513 115.047L130.033 109.183L121.713 112.185C121.713 112.185 134.14 116.6 138.457 119.007C136.127 127.236 128.164 150.857 139.269 154.23C150.373 157.603 144.537 145.267 142.767 123.31C147.441 129.216 154.879 139.76 160.316 142.202C167.446 145.421 175.744 138.263 173.218 131.336ZM139.954 150.389C133.853 147.247 133.258 133.757 138.8 132.371C143.558 131.189 146.063 153.544 139.954 150.389ZM167.348 137.57C161.575 145.883 146.602 125.906 150.373 123.478C153.585 121.4 173.106 129.251 167.348 137.57Z" fill="#4EA09A"/>
</g>
</g>
<g style="mix-blend-mode:multiply" opacity="0.6">
<g style="mix-blend-mode:multiply" opacity="0.6">
<path d="M173.218 131.336C170.678 124.402 142.389 117.692 142.375 117.692C142.305 115.97 142.263 114.193 142.263 112.395C142.263 108.834 142.116 105.496 141.879 102.34C144.656 100.888 147.343 99.2685 149.925 97.4914H149.967C153.446 95.1136 156.647 92.3536 159.511 89.2629L159.665 89.095C160.05 88.6682 160.428 88.2413 160.784 87.8075C160.861 87.7236 160.938 87.6326 161.008 87.5416C161.358 87.1218 161.708 86.695 162.03 86.2752L162.226 86.0093C162.562 85.5685 162.884 85.1277 163.198 84.6869L163.24 84.6239C164.203 83.24 165.079 81.7982 165.864 80.3067L166.032 79.9849C166.228 79.607 166.403 79.2292 166.585 78.8514C166.676 78.6554 166.767 78.4665 166.851 78.2706C167.012 77.9208 167.159 77.5709 167.306 77.2141L167.579 76.5144C167.711 76.1785 167.837 75.8147 167.956 75.4998C168.075 75.1849 168.131 75.01 168.208 74.7581C168.285 74.5062 168.425 74.1144 168.523 73.7855C168.621 73.4567 168.677 73.2398 168.754 72.9669C168.831 72.694 168.929 72.3581 169.006 72.0503C169.111 71.6235 169.202 71.1897 169.293 70.7558C169.384 70.322 169.433 70.0561 169.496 69.6993C169.559 69.3424 169.629 68.9996 169.678 68.6008C169.72 68.3419 169.748 68.083 169.776 67.8311C169.804 67.5792 169.86 67.1314 169.895 66.7955L169.958 66.0189C169.958 65.669 170.007 65.3192 170.021 64.9763C170.035 64.6335 170.021 64.4725 170.021 64.2206C170.021 63.8568 170.021 63.5209 170.021 63.1291C170.021 62.8912 170.021 62.6533 170.021 62.4294C170.021 62.0306 170.021 61.6318 169.972 61.2259C169.972 61.03 169.972 60.8271 169.972 60.6242C169.93 60.0294 169.881 59.4277 169.811 58.826C169.811 58.9169 169.811 59.0079 169.811 59.0988C168.999 51.3392 165.927 43.6075 161.106 36.4216V36.3866C160.001 34.7493 158.811 33.133 157.531 31.5587L157.475 31.4887C156.169 29.912 154.795 28.382 153.354 26.8987L153.277 26.8147C152.822 26.3459 152.36 25.8771 151.877 25.4153L151.793 25.3313C150.8 24.3564 149.776 23.4048 148.722 22.4766L148.645 22.4066C148.155 21.9798 147.665 21.5599 147.161 21.1401L146.979 20.9862C145.902 20.0906 144.794 19.216 143.656 18.3623L143.607 18.3273C143.082 17.9285 142.543 17.5367 142.005 17.1518L141.725 16.9559L140.157 15.8714L140.01 15.7734C138.842 14.9898 137.645 14.2271 136.428 13.4994L136.092 13.2965C135.581 12.9956 135.071 12.6948 134.553 12.4009L134.252 12.205C133.02 11.5099 131.77 10.8452 130.501 10.2108L130.124 10.0219L128.577 9.27322L128.136 9.06331L126.331 8.25166L126.219 8.20268C125.562 7.91813 124.897 7.63825 124.225 7.36304L123.854 7.20911L122.252 6.60736L121.72 6.40445C121.181 6.20154 120.636 6.01262 120.097 5.8167L119.705 5.68376C119.005 5.44586 118.348 5.22196 117.669 4.98406L117.361 4.8861L115.64 4.36832L115.045 4.2004L113.471 3.80856L112.925 3.66862C112.225 3.4867 111.526 3.31877 110.826 3.15784H110.749C110.049 3.01091 109.413 2.86397 108.748 2.73103L108.132 2.60508L106.586 2.3182L105.942 2.20625C105.326 2.1013 104.711 2.00334 104.088 1.91238L103.822 1.8704C103.122 1.77244 102.423 1.68148 101.688 1.59751L101.093 1.53454L99.5118 1.37361L98.8121 1.31763C98.2593 1.26865 97.7065 1.23367 97.1538 1.19868H96.636C95.9363 1.1567 95.2366 1.12871 94.4809 1.10772H93.9561C93.4034 1.10772 92.8436 1.10772 92.2839 1.10772H91.5842C91.0804 1.00977 90.5416 1.00977 90.0098 1.00977H89.3661C88.6664 1.00977 87.9177 1.06574 87.183 1.11472H86.8612C86.2315 1.1567 85.6087 1.20568 84.979 1.26166L84.2793 1.33163C83.7545 1.3876 83.2297 1.44358 82.705 1.51355L81.9843 1.70947C81.2846 1.80043 80.6548 1.89139 79.9901 1.99634L79.7662 2.03133C79.0665 2.15028 78.3039 2.27622 77.5692 2.41616L76.8695 2.54911L75.2742 2.88496L74.5745 3.05289L72.8252 3.47271L72.3424 3.59865C71.6427 3.78757 70.873 3.99748 70.1384 4.20739L69.5646 4.38232L67.8993 4.90709L67.1996 5.15199L65.5623 5.71875L64.9396 5.90766C64.2399 6.17355 63.4702 6.46043 62.7425 6.7543L62.3437 6.92223C61.742 7.16712 61.1332 7.42601 60.5315 7.6919L59.8318 8.00676C59.307 8.24466 58.7752 8.48956 58.2505 8.74145L57.5508 9.06331C56.8511 9.42016 56.0884 9.76301 55.3677 10.1688C54.8009 10.4627 54.2412 10.7776 53.6884 11.0994L53.4295 11.2534C52.9211 11.5612 52.4103 11.8784 51.8972 12.205L51.6033 12.4009C51.0855 12.7367 50.5818 13.1006 50.078 13.4434L49.8821 13.5904C49.3853 13.9542 48.9025 14.2901 48.4197 14.7029L48.3007 14.7939C47.8039 15.1857 47.3212 15.5915 46.8454 16.0043L46.5865 16.2212C46.1247 16.6271 45.6699 17.0399 45.1871 17.4667L44.9422 17.6976C44.4804 18.1314 44.0256 18.5792 43.5778 19.034C43.5512 19.07 43.5207 19.1028 43.4868 19.132C43.053 19.5868 42.6192 20.0486 42.1994 20.5314L42.0384 20.7063C41.6186 21.1751 41.1988 21.6579 40.793 22.1477L40.576 22.4136C40.1702 22.9034 39.7714 23.4002 39.3866 23.9039L39.2186 24.1208C38.407 25.1937 37.6303 26.2923 36.8886 27.4164L36.7417 27.6333C36.3848 28.1791 36.042 28.7319 35.6991 29.2916L35.5382 29.5575C35.1954 30.1243 34.8385 30.698 34.5376 31.2858C34.5376 31.3278 34.4887 31.3767 34.4607 31.4257C34.1248 32.0275 33.803 32.6292 33.4811 33.2449V33.3009C33.1662 33.9096 32.8584 34.5324 32.5645 35.1551L32.4595 35.386C32.1657 35.9948 31.8928 36.6175 31.6199 37.2402C31.6199 37.3102 31.5639 37.3732 31.5289 37.4431C30.9692 38.7586 30.4467 40.0927 29.9616 41.4454V41.5294C29.7237 42.2291 29.4998 42.8658 29.2619 43.5375C29.2619 43.6005 29.2619 43.6635 29.2059 43.7334C29.003 44.3912 28.8071 45.0909 28.6042 45.7906C28.6082 45.8231 28.6082 45.856 28.6042 45.8885C28.2124 47.2879 27.8555 48.7223 27.5476 50.1567C27.5443 50.1869 27.5443 50.2174 27.5476 50.2476C27.3937 50.9567 27.2538 51.6564 27.1278 52.3467C27.1311 52.391 27.1311 52.4354 27.1278 52.4797C26.708 54.6627 26.3861 56.8668 26.2112 59.0848C26.2078 59.1127 26.2078 59.1409 26.2112 59.1688C26.1552 59.8685 26.1063 60.6312 26.0783 61.3589C26.0749 61.3797 26.0749 61.401 26.0783 61.4218C25.9791 63.6369 25.9954 65.8556 26.1272 68.069C26.1238 68.0969 26.1238 68.1251 26.1272 68.153C26.1692 68.8527 26.2252 69.6153 26.2952 70.336C26.2952 70.2171 26.2952 70.0981 26.2392 69.9792C26.2812 70.455 26.3302 70.9238 26.3861 71.3786C26.3861 71.5395 26.4211 71.6934 26.4421 71.8544C26.4421 72.1692 26.5121 72.4771 26.5611 72.792C26.5611 72.9809 26.61 73.1628 26.638 73.3517L26.764 74.1984L26.8689 74.7931C26.9109 75.059 26.9599 75.3249 27.0089 75.5908C27.0578 75.8566 27.0858 76.0106 27.1278 76.2135C27.1698 76.4164 27.2328 76.7243 27.2818 76.9832C27.3307 77.2421 27.3727 77.403 27.4217 77.6199L27.5896 78.3616C27.6456 78.5715 27.6946 78.7884 27.7506 79.0053C27.8065 79.2222 27.8695 79.4881 27.9395 79.705C28.0094 79.9219 28.0514 80.1388 28.1144 80.3557C28.1774 80.5726 28.2473 80.8245 28.3173 81.0554L28.5062 81.7061C28.5832 81.937 28.6532 82.1679 28.7301 82.4058L28.94 83.0566L29.1709 83.7563C29.2549 83.9802 29.3249 84.1971 29.4088 84.414C29.4928 84.6309 29.5698 84.8478 29.6537 85.0647C29.7377 85.2816 29.8217 85.5125 29.9126 85.7644L30.1645 86.3871C30.2625 86.611 30.3534 86.8419 30.4514 87.0868C30.5494 87.3317 30.6123 87.4577 30.6963 87.6396C31.1254 88.5958 31.5919 89.5288 32.0957 90.4384L32.2636 90.7742L32.7044 91.5719C32.7884 91.7118 32.8654 91.8518 32.9423 91.9917L33.3971 92.7544C33.4881 92.9013 33.5721 93.0483 33.656 93.1952L34.1318 93.9369C34.2228 94.0838 34.3137 94.2308 34.4117 94.3707L34.9085 95.0704L35.1954 95.4902L35.7201 96.1899L36.014 96.5818L36.5738 97.3164L36.8676 97.6873L37.4624 98.387L37.7563 98.7298C37.9662 98.9747 38.1761 99.2266 38.393 99.4715L38.6659 99.7654C38.8968 100.024 39.1277 100.276 39.3656 100.528L39.5965 100.766L40.3731 101.557L40.5271 101.704C42.8677 104.002 45.448 106.043 48.2238 107.791H48.2657C48.6576 108.036 49.0494 108.274 49.4552 108.491L49.5672 108.561C49.959 108.792 50.3579 109.008 50.7567 109.26L50.9036 109.344C51.3024 109.554 51.7083 109.771 52.1141 109.974L52.275 110.058C52.6879 110.268 53.1007 110.471 53.5275 110.667L53.6744 110.737C54.1082 110.94 54.5421 111.136 54.9829 111.324L55.0948 111.373C55.5566 111.576 56.0184 111.765 56.4942 111.954H56.5362C68.9629 116.901 85.5458 118.251 106.88 113.913C107.579 113.773 108.279 113.619 109.035 113.466L109.573 113.347L111.449 112.927L112.344 112.71H112.386C112.918 112.584 113.457 112.458 114.003 112.318L115.297 111.989H115.339L116.633 111.653L119.348 110.954C120.433 110.653 121.482 110.338 122.525 110.023L123.511 109.722L125.66 109.022H125.695H125.737L126.765 108.764C127.654 108.456 128.535 108.148 129.396 107.833L130.76 107.322L132.027 106.832L133.629 106.189L133.762 106.14C136.008 110.184 137.708 113.347 138.513 115.047L130.033 109.183L121.713 112.185C121.713 112.185 134.14 116.6 138.457 119.007C136.127 127.236 128.164 150.857 139.269 154.23C150.373 157.603 144.537 145.267 142.767 123.31C147.441 129.216 154.879 139.76 160.316 142.202C167.446 145.421 175.744 138.263 173.218 131.336ZM139.954 150.389C133.853 147.247 133.258 133.757 138.8 132.371C143.558 131.189 146.063 153.544 139.954 150.389V150.389ZM167.348 137.57C161.575 145.883 146.602 125.906 150.373 123.478C153.585 121.4 173.106 129.251 167.348 137.57Z" stroke="#229196" stroke-width="1.98"/>
</g>
</g>
</svg>
