<svg id="Ebene_1" data-name="Ebene 1" xmlns="http://www.w3.org/2000/svg" viewBox="0 0 1663.78 1167.72"><path d="M823.29,635.77s.27,16.57-11.06,24.3c2.5-6.58-.05-9.59-1.07-8.45s-4.07,9.72-6.71,12.9S794.32,674.35,789,675c0,0,15.27-16.95,9.89-20,0,0-7.85-3.73-11.35,6.49s-3.12,16-2.55,18.47c-8.29-6.7-9.72-27.49-5.32-35.16s-9-8-8.62,4.92c-6.23-5.78-1.2-22,4.47-27S823.29,635.77,823.29,635.77Z" style="fill:#ca3803;fill-rule:evenodd"/><path d="M814.77,635.75s1.09,3.84-.06,6.73-3.39-4.48-6.44-1.76-.69,5.14-3.61,8.07-1.45-12.28-10.49-7.12-9.2,9-9.5,11.43-4-6.94-.56-12.93-2.75-7.49-4.57-6-7.9,4.27-2.94-3.53S791,622.12,791,622.12Z" style="fill:#7d1110;fill-rule:evenodd"/><path d="M776.55,610.3C767,607,765.36,620.8,787,629.39c0,0,55.92,24.88,36.9-3.13a463.53,463.53,0,0,0-46.55-16Z" style="fill:#56474b;fill-rule:evenodd"/><path d="M754,556.12c-7.44-1-13.07,4.51-12.54,18,2.12,26-27.06,22.47-15.44,27.09s25.45-3.92,26.41-9.83,7.46-7.64,10.87-7S754,556.12,754,556.12Z" style="fill:#763948;fill-rule:evenodd"/><path d="M899.11,502c9.3.49,15.69-6.93,13.65-23.56-4.45-28.42,32.61-18.81,21.33-27.49-12.31-9.45-36.12-.12-36.68,7.29s-8.45,10.22-12.72,9.85S899.11,502,899.11,502Z" style="fill:#763948;fill-rule:evenodd"/><path d="M762.17,495.13c-12.33-8.37-30.21,11.49-37.35.16s-8.69.41-5.7,9,17,17.63,27.74,14S760.45,528,761,527.8,762.17,495.13,762.17,495.13Z" style="fill:#763948;fill-rule:evenodd"/><path d="M919.24,560.1c2.09.47,8.92-.17,12.1,7.16s.1,28-5.68,15.57-21.88,2.36-21.88,2.36Z" style="fill:#763948;fill-rule:evenodd"/><path d="M789.57,443.88c-1.44-1.57-7.41-5-5.83-12.79s13.48-12.65,2.87-23.12,21.69.78,19.3,14.32,10.7,9.85,10.7,9.85Z" style="fill:#763948;fill-rule:evenodd"/><path d="M801.61,437c182.53-14.05,138.26,206.57,46,194.64C683.27,628.7,730.33,442.5,801.61,437Z" style="fill:#d86d80;fill-rule:evenodd"/><path d="M824.52,534c55.52,14.63,46,59.68,7.44,56.07C764.17,583.74,769,519.38,824.52,534Z" style="fill:#d2cbb2;fill-rule:evenodd"/><path d="M766.46,506c21.79,0,34.07,20.91,11.41,31.65S741.17,506,766.46,506Z" style="fill:#56474b;fill-rule:evenodd"/><path d="M769.73,509.79c16.39,0,21.58,15.54,4.53,23.62S750.7,509.78,769.73,509.79Z" style="fill:#fff;fill-rule:evenodd"/><path d="M901.8,527c-22.85-11.65-46.59,9-26.4,31.26S928.3,540.53,901.8,527Z" style="fill:#56474b;fill-rule:evenodd"/><path d="M897.89,531.1c-17.68-9-32.65,6.56-17,23.81S918.41,541.57,897.89,531.1Z" style="fill:#fff;fill-rule:evenodd"/><path d="M855.41,550.36c-6.66,10.71-15.85,22.7-20.69,20.66-5.46-2.31-8-23.57-8.72-36.59l-1.48-.41c-.77-.21-1.52-.39-2.27-.56-6.73,15-19.14,38.47-24.13,20.76-2.29-8.14-3.11-14.22-3.07-19.66-17.79,7.83-18,30.88,3.22,44.85-.24-3.49-.26-7.1,1.21-9.12,2.89-4,6.24,7.05,8,14,1.12.47,2.27.92,3.46,1.35,2.18-3.62,5.36-8.84,6.94-11.11,2-2.9,3.72,7.68,4.45,14.2,2.6.5,5.35.9,8.22,1.21a23.73,23.73,0,0,0,4.47-6.3c2.77-5.81,4.83.06,3.35,6.6C862.21,589,871.67,567.46,855.41,550.36Z" style="fill:#7d1110;fill-rule:evenodd"/><path d="M774.38,427.76s62.65-11.46,67.7-4.38a35.69,35.69,0,0,1,5.8,15.78s-28.49,23.16-27.31,52c-56.71-1.09-69.34-.8-69.34-.8L738,435.3Z" style="fill:#97888c;fill-rule:evenodd"/><path d="M847.88,439.16a35.69,35.69,0,0,0-5.8-15.78c-3.13-4.39-28.39-1.66-47.15,1.06h0l25.64,66.75C819.39,462.32,847.88,439.16,847.88,439.16Z" style="fill:#4f3f43;fill-rule:evenodd"/><path d="M763.55,437.9c35.13-15,49,51.76,16.38,47.53S740.6,447.69,763.55,437.9Z" style="fill:#4f3f43;fill-rule:evenodd"/><path d="M765.63,444.67c22.58-7.83,39.91,39.61,12.2,34.28S753.05,449,765.63,444.67Z" style="fill:#fff;fill-rule:evenodd"/><path d="M776.53,471.74c-16.36-3.15-14.64-17.66-7.21-20.24,13.34-4.62,23.57,23.39,7.21,20.24" style="fill:#4f3f43;fill-rule:evenodd"/><path d="M772.52,459.79c5.94-4.35.06-7-3-5.17S767.64,463.37,772.52,459.79Z" style="fill:#fff;fill-rule:evenodd"/><path d="M779.49,460.74c2-4.29-3.76-5.06-5.39-1.23S778.62,462.63,779.49,460.74Z" style="fill:#fff;fill-rule:evenodd"/><path d="M901.77,474.35l-16.13-6.19L912.07,446S921.72,457.67,901.77,474.35Z" style="fill:#4f3f43;fill-rule:evenodd"/><path d="M877.63,455.63s27.78-17.13,34.44-9.63-26.43,22.16-26.43,22.16Z" style="fill:#97888c;fill-rule:evenodd"/><path d="M907.72,447.21c4.33,3.66-8.85,11-10.51,5.25S905.57,445.4,907.72,447.21Z" style="fill:#4f3f43;fill-rule:evenodd"/><path d="M908.31,450.05c-2.81-.94-9.42.2-9.82,4.09C901.23,455.68,907,452.89,908.31,450.05Z" style="fill:#281d21;fill-rule:evenodd"/><path d="M903.45,451.85a4.88,4.88,0,0,0-2.52,2.71,11.08,11.08,0,0,0,6.05-2.77A4.73,4.73,0,0,0,903.45,451.85Z" style="fill:#4f3f43;fill-rule:evenodd"/><path d="M894.35,453.93c4.34,3.67-8.85,11-10.5,5.25S892.21,452.12,894.35,453.93Z" style="fill:#4f3f43;fill-rule:evenodd"/><path d="M895,456.78c-2.82-.95-9.42.19-9.82,4.09C887.87,462.41,893.62,459.61,895,456.78Z" style="fill:#281d21;fill-rule:evenodd"/><path d="M890.09,458.58a4.85,4.85,0,0,0-2.52,2.71,11.06,11.06,0,0,0,6-2.78A4.69,4.69,0,0,0,890.09,458.58Z" style="fill:#4f3f43;fill-rule:evenodd"/><path d="M916.06,485.2c19.34-2.27,28.71,10.29,32.15,23.35s-21.4-2.7-34.43,5.79S896.72,487.47,916.06,485.2Z" style="fill:#e396a8;fill-rule:evenodd"/><path d="M899.28,612.62c2.08,11,19,12.8,9.87,33.74s-3-13.92-27.41-19.58S897.34,602.47,899.28,612.62Z" style="fill:#e396a8;fill-rule:evenodd"/><path d="M849.13,440.84c26.83-9.09,10.5-31.91,22.75-27.58s8.86,40.3-1,43.15S838.7,449.07,849.13,440.84Z" style="fill:#e396a8;fill-rule:evenodd"/><path d="M858.67,488.73s7.07-15.71,17.25-11.81c15,5.75,1.05,23.73,3.72,21.3C873.06,485.23,862.11,484.2,858.67,488.73Z" style="fill:#2d2325;fill-rule:evenodd"/><path d="M871.12,479.94c13.76-1.68,13.52,28.28-3.8,24.63S857.5,481.61,871.12,479.94Z" style="fill:#4f3f43;fill-rule:evenodd"/><path d="M871.54,485.7c6.73,1.85,5.66,17.64-3.77,13.26S864.85,483.86,871.54,485.7Z" style="fill:#fff;fill-rule:evenodd"/><path d="M870,489.3c5.14,1.81,1.77,9.77-2,6.67S866.42,488,870,489.3Z" style="fill:#4f3f43;fill-rule:evenodd"/><path d="M868.64,489.64c2.52,0,1.05,4.33-.89,1.73C866.62,489.85,868.64,489.64,868.64,489.64Z" style="fill:#fff;fill-rule:evenodd"/><path d="M834.52,466.76s2.39-11.56,12.2-10.32,5.66,14.09,4.73,15.15C849.89,464.54,836.68,462.25,834.52,466.76Z" style="fill:#2d2325;fill-rule:evenodd"/><path d="M844.79,458.17c10.45-1.28,10.27,21.48-2.89,18.71S834.44,459.44,844.79,458.17Z" style="fill:#4f3f43;fill-rule:evenodd"/><path d="M845.5,461.51c6.23,1.72,5.23,16.32-3.48,12.26S839.32,459.81,845.5,461.51Z" style="fill:#fff;fill-rule:evenodd"/><path d="M846.74,466.67c1.53,5.24-6.9,7.15-6.57,2.28S845.67,463,846.74,466.67Z" style="fill:#4f3f43;fill-rule:evenodd"/><path d="M843.79,465.42c2.51,0,1,4.33-.9,1.73C841.76,465.63,843.79,465.42,843.79,465.42Z" style="fill:#fff;fill-rule:evenodd"/><path d="M845.44,498.37c-7.54-13.05-12.55-25.39-25.64-23S793.11,488.91,797.11,497a67.56,67.56,0,0,0,8.47,13.2s14.86-4.89,28.67.56C840.87,500.16,845.44,498.37,845.44,498.37Z" style="fill:#56474b;fill-rule:evenodd"/><path d="M845.44,498.37c-1.37-2.39-2.68-4.75-4-7h0c-6.74,15.59-40,13.31-40,13.31a56.06,56.06,0,0,0,4.06,5.52s14.86-4.89,28.67.56C840.87,500.16,845.44,498.37,845.44,498.37Z" style="fill:#42363a;fill-rule:evenodd"/><path d="M834.08,480.38c-3.7-4-8.08-6.15-14.28-5-13.08,2.38-26.69,13.55-22.69,21.63C816.78,513.39,838.38,485.7,834.08,480.38Z" style="fill:#97888c;fill-rule:evenodd"/><path d="M823.62,478.41c-11.21-4.19-24.75,13.8-22.4,17C811.14,508.91,844,486.05,823.62,478.41Z" style="fill:#30282a;fill-rule:evenodd"/><path d="M805.85,497.7c11,3.74,28.11-8.27,21.21-16.17C822.18,481.76,811.69,482.74,805.85,497.7Z" style="fill:#97888c;fill-rule:evenodd"/><path d="M826.82,483.05a14.06,14.06,0,0,0-13.11,7.29c-.46,1.22,6.15-2.19,10.4-1.07A10,10,0,0,0,826.82,483.05Z" style="fill:#e4d5d9;fill-rule:evenodd"/><path d="M875.84,601.61c.83-18-41.44-.45-29.14,10.72S875.43,610.68,875.84,601.61Z" style="fill:#fff;fill-rule:evenodd"/><path d="M868,602.47c-.74-4.26-18.11,1.68-14.58,7S869.14,609,868,602.47Z" style="fill:#56474b;fill-rule:evenodd"/><path d="M866.52,603.12c-1-2.66-6.45-.34-4.22,1.5S867,604.34,866.52,603.12Z" style="fill:#fff;fill-rule:evenodd"/><path d="M865.74,605.93c.86,1.17-1.7,2.55-2.53,1.29S865.74,605.93,865.74,605.93Z" style="fill:#fff;fill-rule:evenodd"/><path d="M845.07,445.81s-3.65,8.54,15,11.79c15.48,2.46,17.3-3.62,17.94-4.73,1.08-.75-.28,9.75-18,6S842.92,447.44,845.07,445.81Z" style="fill:#763948;fill-rule:evenodd"/><path d="M912,516.29s-11.1,3.67-10.12-14.36a23.82,23.82,0,0,1,4.93-13.63s-10.46,10.69-4.55,24.77C907.31,521.79,912,516.29,912,516.29Z" style="fill:#763948;fill-rule:evenodd"/><path d="M896.4,608.62s-16.77-.79-22.93,9.12c-3.26,5.44-.49,7.08,2.73,8.48-4.41-.88-7.93-3-2.73-10.43S894.2,607.15,896.4,608.62Z" style="fill:#763948;fill-rule:evenodd"/></svg>