<svg width="197" height="145" viewBox="0 0 197 145" fill="none" xmlns="http://www.w3.org/2000/svg">
<path d="M68.1921 127.547C68.1921 152.507 133.392 150.892 133.392 121.435V93.9287L68.1921 102.079V127.547Z" fill="#5BB5B1"/>
<path d="M143.488 83.6084V103.601C143.488 112.179 132.791 120.92 105.127 124.195C70.7287 128.275 56.0027 119.911 56.0027 109.785C56.0027 108.924 56.0027 90.6429 56.0027 89.6241C55.7837 80.1039 68.6658 68.9385 90.5077 65.0927C120.647 59.785 143.437 71.4242 143.482 83.4964" fill="#79DBDB"/>
<path d="M90.5181 65.108C141.679 56.0972 171.676 95.925 105.122 103.82C38.5671 111.716 45.6932 73.0032 90.5181 65.108Z" fill="#98E5E3"/>
<path d="M99.3252 74.0272L106.309 72.0202L109.874 74.8778L113.251 73.7368C109.584 70.9149 106.818 68.7959 106.818 68.7959L96.8547 71.7095L99.3252 74.0272Z" fill="#35847E"/>
<path d="M119.674 82.7072L124.549 86.609L116.017 89.6653L118.854 92.3293C125.639 89.8588 131.196 87.801 131.196 87.7042C131.196 87.6074 127.677 84.8466 123.311 81.4644L119.674 82.7072Z" fill="#35847E"/>
<path d="M82.6941 84.072L78.5478 80.0022L87.6962 77.3738L85.2919 75.0918L72.8582 78.7287L79.1693 85.264L82.6941 84.072Z" fill="#35847E"/>
<path d="M104.902 93.6991L95.8356 96.9693L91.0781 92.2983L87.217 93.5921L94.5062 101.141C94.5062 101.141 100.558 98.9711 107.75 96.3733L104.902 93.6991Z" fill="#35847E"/>
<g opacity="0.6">
<path opacity="0.6" d="M141.129 79.3606C141.715 60.794 130.432 38.6464 101.734 40.5056C64.9831 42.8895 52.911 56.8361 57.964 86.8586C58.6822 92.803 64.1172 95.8592 70.5557 98.0393C75.9907 100.632 83.1881 102.364 92.2957 102.7C95.3519 102.817 98.291 102.787 101.123 102.634C101.296 96.3431 102.845 79.3351 114.494 76.1465C126.877 72.754 130.616 86.2728 131.736 93.9745C138.124 89.7926 141.537 84.5562 141.129 79.3606Z" fill="#2D8E85"/>
<path opacity="0.4" d="M99.7477 101.564C99.7477 101.564 101.602 77.7355 114.907 76.0698C104.948 77.5419 101.205 96.9541 101.123 102.654C82.0317 104.656 41.618 93.4394 64.9575 76.0698C88.297 58.7002 121.126 64.6344 128.059 68.2C134.991 71.7656 141.302 75.1631 141.078 81.4895C140.854 87.816 131.731 93.9947 131.731 93.9947L130.499 93.9132C130.499 93.9132 153.757 79.3247 126.933 68.3732C100.109 57.4217 52.9007 73.2988 59.6957 89.7669C67.8508 103.52 99.7477 101.564 99.7477 101.564Z" fill="#243836"/>
<path opacity="0.6" d="M114.906 76.0696C128.767 73.7621 130.503 93.8976 130.503 93.8976L131.736 93.9791C130.631 86.3793 126.953 73.0898 114.906 76.0696Z" fill="#243836"/>
<g style="mix-blend-mode:screen" opacity="0.6">
<path d="M107.958 47.3467C90.1303 52.0431 96.7522 71.0274 116.526 64.5686C137.018 57.8805 127.768 42.1307 107.958 47.3467Z" fill="#36B2A3"/>
</g>
</g>
<path d="M67.423 7.16191C74.6001 13.3966 86.4583 15.9028 86.4481 41.2033C86.4481 48.4211 104.088 47.7029 104.943 42.0743C105.799 36.4458 101.974 5.63379 84.6551 1.3245C67.3364 -2.9848 64.1987 4.36036 67.423 7.16191Z" fill="#79DBDB"/>
<path d="M84.2781 2.83196C95.1838 6.86619 100.497 22.3155 100.792 30.8475C101.087 39.3795 99.1773 16.0757 85.6789 8.5624C81.5173 6.15307 73.4539 -0.606311 84.2781 2.83196Z" fill="#B7EDEA"/>
<path d="M121.844 111.731V119.03C121.844 119.03 129.098 117.273 132.368 115.128C132.368 110.203 132.266 108.379 132.266 108.379L136.173 106.678L126.087 100.754L116.002 113.091L121.844 111.731Z" fill="#35847E"/>
<path d="M136.173 106.678L126.087 100.754L125.313 101.706L134.161 106.943L130.743 108.563C130.743 108.563 130.84 110.04 130.84 114.965C129.194 116.555 123.673 118.399 121.844 119.04C124.075 118.332 128.273 117.548 132.368 115.139C132.368 110.213 132.266 108.389 132.266 108.389L136.173 106.678Z" fill="#295951"/>
</svg>
