<svg width="197" height="124" viewBox="0 0 197 124" fill="none" xmlns="http://www.w3.org/2000/svg">
<path d="M193.99 73.7762L192.508 59.9506L134.725 18.1222L106.331 7.57373L42.2628 16.4837L23.0625 32.419C23.0625 32.419 45.1702 87.3556 60.0514 85.1615C71.9901 83.4034 120.693 63.1714 129.64 66.2305C151.972 73.8746 183.294 92.6791 185.935 91.6242C186.447 91.1882 186.946 90.7593 187.416 90.3162C189.709 88.2516 191.495 85.685 192.635 82.8162C193.775 79.9473 194.239 76.8537 193.99 73.7762Z" fill="#387A74"/>
<path d="M98.157 13.3333C51.9963 18.5583 18.5048 21.962 15.3726 39.5991C13.1183 52.2573 16.8263 70.0983 22.6131 77.419C33.7723 91.5329 81.5271 74.0575 102.265 68.0168C133.166 59.0013 128.495 37.6371 128.102 29.6061C127.709 21.5752 119.099 10.9704 98.157 13.3333Z" fill="#276660"/>
<path d="M94.6948 11.9199C49.6578 17.0183 17.0019 20.3587 13.9329 37.5317C11.7348 49.9015 15.3375 67.2855 20.9908 74.4233C31.8761 88.1856 78.4581 71.1462 98.6837 65.2813C128.861 56.4557 124.282 35.6259 123.902 27.7989C123.523 19.9719 115.117 9.61327 94.6948 11.9199Z" fill="white"/>
<path d="M18.1326 21.9689L23.1819 93.333L126.508 63.6496L127.407 5.91406L18.1326 21.9689Z" fill="#276660"/>
<path d="M47.509 89.1209C47.509 89.1209 70.7755 39.4022 78.7955 30.7524C84.6876 32.8621 102.118 65.3023 106.528 74.0998C110.77 82.5667 47.509 89.1209 47.509 89.1209Z" fill="#48938D"/>
<path d="M17.2898 54.7608C17.2898 54.7608 86.6255 31.6174 129.97 32.2573C130.602 0.914203 128.566 0 128.566 0L11.6013 18.8537L17.2898 54.7608Z" fill="#8DD3CC"/>
<path d="M77.1379 38.6917L75.9089 78.7901L82.2154 75.7732L78.0368 37.5454L77.1379 38.6917Z" fill="#8DD3CC"/>
<path d="M94.8355 38.8047C97.5673 36.1746 97.5533 45.9144 95.7836 46.2168C94.0138 46.5192 93.7118 39.8525 94.8355 38.8047Z" fill="#8DD3CC"/>
<path d="M94.9546 13.0308C90.5163 15.6117 88.3603 42.0322 95.2988 40.9563C102.02 39.8944 96.6822 12.0182 94.9546 13.0308Z" fill="#48938D"/>
<path d="M100.236 43.6919C102.89 41.0829 102.841 50.6258 101.128 50.9423C99.4142 51.2587 99.1754 44.7327 100.236 43.6919Z" fill="#8DD3CC"/>
<path d="M100.489 18.453C96.1769 21.0338 93.9787 46.9199 100.707 45.7877C107.238 44.6766 102.174 17.4473 100.489 18.453Z" fill="#48938D"/>
<path d="M105.945 51.1392C108.523 48.5513 108.438 57.841 106.774 58.1716C105.11 58.5021 104.927 52.173 105.945 51.1392Z" fill="#8DD3CC"/>
<path d="M106.304 26.547C102.09 29.142 99.8848 54.3951 106.395 53.1644C112.708 51.9689 107.94 25.5414 106.304 26.547Z" fill="#48938D"/>
<path d="M62.0392 45.7033C58.7315 44.1633 59.3073 54.6204 61.3369 54.0437C63.3665 53.4671 63.3314 46.3081 62.0392 45.7033Z" fill="#8DD3CC"/>
<path d="M60.4238 18.2843C65.5575 19.508 69.3428 46.0832 61.5896 48.1929C53.5696 50.387 58.317 17.7921 60.4238 18.2843Z" fill="#48938D"/>
<path d="M55.9571 53.6288C52.5721 52.138 53.2112 62.6161 55.318 61.9973C57.4249 61.3784 57.2844 54.2055 55.9571 53.6288Z" fill="#8DD3CC"/>
<path d="M54.1593 26.1673C59.4404 27.3065 63.4293 53.9028 55.5077 56.1462C47.3261 58.4739 52.0384 25.6891 54.1593 26.1673Z" fill="#48938D"/>
<path d="M49.3697 64.9786C45.9075 63.5722 46.6028 74.0152 48.7447 73.3471C50.8866 72.679 50.7181 65.5201 49.3697 64.9786Z" fill="#8DD3CC"/>
<path d="M47.3965 37.6018C52.8041 38.6074 57.0037 65.0279 48.9205 67.5033C40.5774 70.0349 45.2335 37.2009 47.3965 37.6018Z" fill="#48938D"/>
<path d="M155.793 34.5286C155.793 34.5286 132.056 20.7663 109.169 18.8394C96.5277 17.7916 48.1058 18.4808 37.5786 35.5272C27.0515 52.5735 34.299 26.5609 34.299 26.5609C34.299 26.5609 40.8583 19.9997 41.7923 20.2318C42.7263 20.4639 88.6131 11.2656 91.6539 11.5961C94.6948 11.9266 114.597 11.5961 114.597 11.5961L135.897 20.2459L155.793 34.5286Z" fill="#276660"/>
<path d="M187.409 90.3235C200.373 78.242 195.387 71.287 195.043 64.2336C194.818 59.536 192.234 54.114 186.742 50.1197C180.99 45.9354 133.439 13.3687 127.674 9.33209C121.908 5.29553 113.094 2.87641 100.552 4.28991C45.3175 10.5346 5.27372 14.6063 1.53058 35.7034C-1.16616 50.8721 3.26521 72.1871 10.1897 80.9424C15.9553 88.2349 38.4423 114.297 43.7796 117.616C51.1394 121.744 56.1467 124.423 66.3367 123.945C77.3765 124.023 75.3048 105.914 70.8172 96.7933C63.5627 82.0254 46.9398 54.9087 39.6853 40.844C35.6261 32.9959 32.0866 20.9917 77.1377 16.484C98.7397 14.318 126.185 9.10003 155.793 34.529C178.055 53.6499 193.99 52.0254 190.478 81.5331C189.939 84.6109 188.903 87.58 187.409 90.3235Z" fill="#4FBAB5"/>
<path d="M33.7862 13.9238C15.218 18.3823 3.47589 24.7466 1.53058 35.7241C-1.16616 50.8717 3.26521 72.1867 10.1897 80.942C15.4076 87.5454 34.3058 109.493 41.7921 116.104C54.9247 117.953 54.4331 111.68 53.9345 100.9C53.4359 90.1192 27.9502 53.0799 19.5229 38.0729C11.0956 23.0659 33.737 13.9449 33.7862 13.9238Z" fill="#8DD3CC"/>
<path d="M7.14881 54.9227C1.02495 56.5683 1.18648 58.8608 3.28629 62.3066C4.92259 65.0071 9.71212 63.4388 11.0113 62.7778C13.3008 61.6034 11.1377 53.8538 7.14881 54.9227Z" fill="#276660"/>
<path d="M80.3823 11.2728C81.4217 5.00704 79.2657 4.24051 75.2627 4.70465C72.1376 5.08439 71.5828 10.0984 71.646 11.5541C71.7654 14.128 79.7081 15.3516 80.3823 11.2728Z" fill="#276660"/>
<path d="M44.0184 92.665C43.1388 92.0765 42.118 91.7342 41.0618 91.6734C40.6826 91.6734 39.2921 91.6734 38.955 91.6734C34.5377 91.5961 33.2947 99.0926 37.2134 104.388C37.5218 104.884 37.9467 105.297 38.451 105.591C38.9552 105.885 39.5236 106.052 40.1067 106.076C40.4649 106.076 41.8975 106.076 42.2627 106.076C46.5466 105.998 50.5917 96.7156 44.0184 92.665Z" fill="#48938D"/>
<path d="M41.9114 92.6652C50.0578 97.6722 41.9114 110.717 37.2272 104.388C32.543 98.059 35.2398 88.5654 41.9114 92.6652Z" fill="#4FBAB5"/>
</svg>
