<svg width="197" height="154" viewBox="0 0 197 154" fill="none" xmlns="http://www.w3.org/2000/svg">
<path d="M85.4489 2.36561C134.931 -2.5225 132.712 18.1377 140.68 83.424C148.647 148.71 132.687 148.886 92.5965 153.325C52.5062 157.764 54.5137 119.797 51.6521 81.3767C48.7905 42.9566 35.6739 7.28731 85.4489 2.36561Z" fill="#A6FFF6"/>
<path d="M88.3266 0.82831C137.816 -4.05794 135.59 16.6004 143.557 81.8867C151.525 147.173 135.564 147.349 95.4723 151.795C55.3801 156.241 57.3914 118.259 54.5368 79.8413C51.6821 41.4231 38.5307 5.74441 88.3266 0.82831Z" fill="#3E605F"/>
<path d="M91.5716 5.91886C126.12 2.84157 133.905 13.7957 138.88 96.8601C141.158 134.362 135.076 139.411 116.145 145.044C99.6144 149.969 64.2787 154.591 63.683 119.871C62.5646 57.7418 33.0227 11.1866 91.5716 5.91886Z" fill="#4FBAB5"/>
<path d="M138.515 122.873L66.1878 133.138C74.6188 153.17 102.119 149.213 116.135 145.027C129.34 141.109 136.3 137.438 138.515 122.873Z" fill="#499E96"/>
<path d="M107.183 132.796C112.476 131.973 112.482 140.342 107.393 141.071C102.305 141.799 101.891 133.612 107.183 132.796Z" fill="#4FBAB5"/>
<path d="M123.857 137.705L123.85 130.367L117.701 135.585L123.857 137.705Z" fill="#4FBAB5"/>
<path d="M94.5801 143.218L93.8932 135.354L86.0162 136.284L86.809 144.618L94.5801 143.218Z" fill="#4FBAB5"/>
<path d="M101.439 16.3249C106.683 15.937 109.704 31.9871 102.153 32.5112C94.601 33.0353 96.1904 16.704 101.439 16.3249Z" fill="#4A827F"/>
<path d="M101.154 17.3917C99.022 17.5676 97.6608 23.8744 99.9187 23.7846C102.177 23.6948 103.391 17.1842 101.154 17.3917Z" fill="#54EFE4"/>
<path d="M102.6 22.7549C103.515 20.7065 105.143 21.6283 105.173 24.027C105.202 26.4256 101.692 24.8051 102.6 22.7549Z" fill="#54EFE4"/>
<path d="M104.377 19.3013C105.163 20.5504 104.01 21.4815 103.307 20.5086C102.604 19.5358 103.774 18.3477 104.377 19.3013Z" fill="#54EFE4"/>
<path d="M81.8995 18.0672C87.1415 17.6863 90.1643 33.7294 82.6127 34.2535C75.0611 34.7776 76.6574 18.4481 81.8995 18.0672Z" fill="#4A827F"/>
<path d="M81.5997 19.13C79.4751 19.3078 78.1121 25.6215 80.3555 25.5578C82.5989 25.494 83.8577 18.9281 81.5997 19.13Z" fill="#54EFE4"/>
<path d="M83.0728 24.508C83.9827 22.4507 85.6159 23.3814 85.6386 25.7782C85.6613 28.175 82.1579 26.5564 83.0728 24.508Z" fill="#54EFE4"/>
<path d="M84.8444 21.0452C85.6303 22.2943 84.4699 23.2235 83.7738 22.2525C83.0777 21.2816 84.2477 20.0934 84.8444 21.0452Z" fill="#54EFE4"/>
<path d="M76.3669 35.2023C76.3669 35.2023 95.6152 41.854 106.337 33.8195C117.059 25.7849 107.295 56.7877 91.8363 53.2805C76.3774 49.7733 69.1309 31.5376 76.3669 35.2023Z" fill="#3E605F"/>
<path d="M81.0595 46.5454C83.5152 48.5332 89.8944 53.4998 96.2671 52.6075C102.64 51.7152 106.365 44.5029 106.694 44.1128C107.023 43.7228 98.5258 42.477 95.1849 46.3856C89.97 43.905 79.0738 44.9225 81.0595 46.5454Z" fill="#54EFE4"/>
<path d="M65.6938 75.8158C66.4276 82.5569 66.8456 82.4747 76.042 81.3603C83.9632 80.4048 84.2463 79.5991 83.3288 74.1012C82.4113 68.6033 81.2719 69.0077 74.593 69.7881C67.9141 70.5685 65.0652 70.1039 65.6938 75.8158Z" fill="#499E96"/>
<path d="M74.3687 73.2464C78.1206 75.081 78.1206 75.081 75.071 77.5959C72.838 79.4331 72.2697 72.2134 74.3687 73.2464Z" fill="#54EFE4"/>
<path d="M90.3137 72.82C91.0545 79.563 91.4655 79.4789 100.669 78.3664C108.59 77.4108 108.866 76.6032 107.949 71.1054C107.031 65.6075 105.892 66.0119 99.2199 66.7942C92.5479 67.5764 89.6846 67.1379 90.3137 72.82Z" fill="#499E96"/>
<path d="M98.9898 70.2735C102.735 72.1063 102.735 72.1063 99.6851 74.6211C97.4521 76.4583 96.863 69.233 98.9898 70.2735Z" fill="#54EFE4"/>
<path d="M114.929 69.8675C115.663 76.6086 116.081 76.5264 125.278 75.412C133.199 74.4565 133.482 73.6508 132.557 68.151C131.633 62.6512 130.507 63.0594 123.814 63.8658C117.121 64.6722 114.301 64.1556 114.929 69.8675Z" fill="#499E96"/>
<path d="M123.639 67.3075C127.384 69.1402 127.384 69.1402 124.341 71.6569C122.073 73.4848 121.485 66.2297 123.639 67.3075Z" fill="#54EFE4"/>
<path d="M68.1579 93.8607C68.9005 100.597 69.3166 100.521 78.5131 99.4071C86.4342 98.4516 86.7174 97.6458 85.7947 92.1391C84.8721 86.6324 83.736 87.0526 77.0659 87.8279C70.3959 88.6032 67.5362 88.1507 68.1579 93.8607Z" fill="#499E96"/>
<path d="M76.867 91.3008C80.612 93.1335 80.612 93.1335 77.5712 95.6433C75.3103 97.473 74.7123 90.2528 76.867 91.3008Z" fill="#54EFE4"/>
<path d="M91.2391 97.7216C91.9818 104.458 92.391 104.381 101.594 103.268C109.516 102.312 109.792 101.505 108.876 96C107.96 90.4952 106.858 90.902 100.153 91.6679C93.4479 92.4339 90.6231 91.9908 91.2391 97.7216Z" fill="#499E96"/>
<path d="M99.9263 95.1336C103.671 96.9663 103.671 96.9663 100.624 99.4742C98.3887 101.318 97.7856 94.0893 99.9263 95.1336Z" fill="#54EFE4"/>
<path d="M106.519 86.1718C107.254 92.906 107.672 92.8237 116.869 91.7094C124.79 90.7538 125.073 89.9481 124.149 84.4484C123.224 78.9486 122.099 79.3568 115.42 80.1372C108.741 80.9176 105.918 80.4675 106.519 86.1718Z" fill="#499E96"/>
<path d="M115.195 83.5959C118.938 85.4356 118.938 85.4356 115.897 87.9454C113.664 89.7826 113.068 82.5554 115.195 83.5959Z" fill="#54EFE4"/>
<path d="M70.6006 111.9C71.3433 118.636 71.7543 118.552 80.9559 117.446C88.8923 116.517 89.1829 115.684 88.2445 110.18C87.3061 104.677 86.1857 105.094 79.5157 105.869C72.8456 106.644 69.9994 106.225 70.6006 111.9Z" fill="#499E96"/>
<path d="M79.3102 109.341C83.0551 111.173 83.0551 111.173 80.0074 113.681C77.7744 115.518 77.1852 108.293 79.3102 109.341Z" fill="#54EFE4"/>
<path d="M95.2497 108.934C95.9854 115.668 96.4034 115.586 105.598 114.479C113.521 113.516 113.804 112.711 112.88 107.211C111.955 101.711 110.828 102.126 104.151 102.9C97.4738 103.673 94.5933 103.215 95.2497 108.934Z" fill="#499E96"/>
<path d="M103.928 106.352C107.673 108.184 107.673 108.184 104.633 110.694C102.396 112.545 101.8 105.318 103.928 106.352Z" fill="#54EFE4"/>
<path d="M119.864 105.96C120.6 112.694 121.018 112.612 130.22 111.506C138.136 110.542 138.419 109.736 137.501 104.238C136.584 98.7401 135.442 99.1515 128.765 99.9249C122.088 100.698 119.236 100.248 119.864 105.96Z" fill="#499E96"/>
<path d="M128.546 103.392C132.29 105.225 132.29 105.225 129.243 107.733C127.015 109.549 126.421 102.345 128.546 103.392Z" fill="#54EFE4"/>
<g style="mix-blend-mode:screen" opacity="0.5">
<g style="mix-blend-mode:screen" opacity="0.5">
<path d="M54.5671 79.857C55.0112 85.8192 55.3401 91.7654 55.7277 97.5481L116.88 2.33511C109.986 0.013749 100.799 -0.382714 88.3252 0.841448C38.5412 5.73827 51.6592 41.4185 54.5671 79.857Z" fill="#55FFF6"/>
</g>
<g style="mix-blend-mode:screen" opacity="0.5">
<path d="M140.521 56.1058C131.561 70.0288 96.0786 124.883 79.3276 150.846C82.3788 151.691 85.5294 152.123 88.6954 152.131L142.033 69.2265C141.506 64.5975 141.002 60.224 140.521 56.1058Z" fill="#55FFF6"/>
</g>
</g>
<path d="M141.157 60.7061C141.157 60.7061 157.04 56.9682 163.536 70.5876C169.873 83.8805 125.315 95.4594 117.72 94.8362C110.124 94.2131 115.362 86.9055 121.186 86.053C127.01 85.2004 161.08 82.8766 157.701 70.9516C156.141 65.4534 141.521 65.7868 141.521 65.7868L141.157 60.7061Z" fill="#A6FFF6"/>
<path d="M50.7213 71.5796C50.7213 71.5796 35.843 74.6604 35.3948 87.9879C34.9465 101.315 83.1397 111.136 95.3429 105.993C107.546 100.851 95.9246 99.1939 90.1634 99.5328C84.4022 99.8718 49.3929 99.4561 43.0396 88.7887C38.9574 81.7182 51.2919 77.2012 51.2919 77.2012" fill="#A6FFF6"/>
</svg>
